<?xml version="1.0" standalone="no"?>
<!DOCTYPE svg PUBLIC "-//W3C//DTD SVG 1.1//EN" "http://www.w3.org/Graphics/SVG/1.1/DTD/svg11.dtd" >
<svg xmlns="http://www.w3.org/2000/svg">
<metadata></metadata>
<defs>
<font id="open_sans_hebrewbold_italic" horiz-adv-x="1128" >
<font-face units-per-em="2048" ascent="1638" descent="-410" />
<missing-glyph horiz-adv-x="532" />
<glyph horiz-adv-x="2048" />
<glyph horiz-adv-x="2048" />
<glyph unicode="&#xd;" horiz-adv-x="1044" />
<glyph unicode=" "  horiz-adv-x="532" />
<glyph unicode="&#x09;" horiz-adv-x="532" />
<glyph unicode="&#xa0;" horiz-adv-x="532" />
<glyph unicode="!" horiz-adv-x="586" d="M25 115q0 91 54 144.5t150 53.5q69 0 109.5 -38.5t40.5 -106.5q0 -87 -55.5 -141t-136 -54t-121.5 37.5t-41 104.5zM150 485l157 977h340l-256 -977h-241z" />
<glyph unicode="&#x22;" horiz-adv-x="928" d="M201 934l71 528h277l-152 -528h-196zM604 934l74 528h276l-151 -528h-199z" />
<glyph unicode="#" horiz-adv-x="1323" d="M41 408l18 206h277l70 232h-252l18 209h289l119 407h217l-117 -407h199l116 407h215l-116 -407h239l-18 -209h-279l-69 -232h258l-19 -206h-297l-116 -408h-220l117 408h-194l-115 -408h-215l113 408h-238zM553 614h197l69 232h-196z" />
<glyph unicode="$" d="M51 168v266q198 -106 404 -117l71 322q-319 119 -319 365q0 173 127.5 279.5t349.5 121.5l35 151h139l-33 -151q166 -22 295 -90l-106 -232q-133 65 -242 74l-63 -299q132 -52 195 -100q130 -98 130 -262q0 -185 -126 -292t-367 -124l-39 -199h-140l44 201 q-209 12 -355 86zM502 1022q0 -79 80 -111l51 246q-63 -7 -97 -41.5t-34 -93.5zM594 322q65 9 103 45.5t38 97.5q0 85 -84 119z" />
<glyph unicode="%" horiz-adv-x="1753" d="M115 893q0 162 55 303q113 287 365 287q139 0 212.5 -80.5t73.5 -241.5t-56 -305t-150.5 -217.5t-225 -73.5t-202.5 83t-72 245zM231 0l1088 1462h235l-1083 -1462h-240zM360 868q0 -96 56 -96q65 0 112 131.5t47 274.5q0 96 -57 96q-63 0 -110.5 -129t-47.5 -277z M973 283q0 175 53 321t147.5 220.5t226 74.5t205.5 -79t74 -238t-53.5 -305t-147.5 -220.5t-216 -74.5q-143 0 -216 78t-73 223zM1219 284q0 -96 55 -96q41 0 77.5 56t59.5 154.5t23 195t-58 96.5q-39 0 -75 -56t-59 -155t-23 -195z" />
<glyph unicode="&#x26;" horiz-adv-x="1450" d="M68 358q0 144 78 248q80 104 274 201q-76 130 -76 258q0 195 118 307.5t316 112.5q168 0 265.5 -82.5t97.5 -224.5q0 -280 -365 -426l195 -263q46 61 81 122t78 173h300q-133 -313 -310 -497l205 -287h-350l-72 98q-175 -118 -393.5 -118t-330 97.5t-111.5 280.5z M383 393.5q0 -71.5 45 -114.5q46 -43 117 -43q114 0 221 59l-225 328q-89 -51 -123.5 -104.5t-34.5 -125zM621 1085q0 -45 11.5 -91t29.5 -74q113 59 155.5 111t42.5 109t-28.5 84t-71.5 27q-65 0 -102 -46t-37 -120z" />
<glyph unicode="'" horiz-adv-x="522" d="M201 934l71 528h277l-152 -528h-196z" />
<glyph unicode="(" horiz-adv-x="694" d="M74 280.5q0 338.5 122.5 627t381.5 554.5h262q-500 -546 -500 -1192q0 -308 117 -594h-234q-149 266 -149 604.5z" />
<glyph unicode=")" horiz-adv-x="694" d="M-147 -324q499 544 499 1192q0 306 -116 594h233q149 -265 149 -606t-124.5 -630t-378.5 -550h-262z" />
<glyph unicode="*" horiz-adv-x="1116" d="M172 1141l86 237l338 -174l33 369l256 -51l-113 -353l387 29l-18 -254l-338 43l160 -336l-246 -73l-90 337l-197 -278l-207 164l275 248z" />
<glyph unicode="+" d="M109 612v219h366v369h219v-369h367v-219h-367v-364h-219v364h-366z" />
<glyph unicode="," horiz-adv-x="569" d="M-102 -264q74 168 194 502h285l8 -23q-121 -260 -262 -479h-225z" />
<glyph unicode="-" horiz-adv-x="659" d="M41 424l53 250h524l-53 -250h-524z" />
<glyph unicode="." horiz-adv-x="584" d="M25 115q0 91 54 144.5t150 53.5q69 0 109.5 -38.5t40.5 -106.5q0 -87 -55.5 -141t-136 -54t-121.5 37.5t-41 104.5z" />
<glyph unicode="/" horiz-adv-x="862" d="M-90 0l809 1462h295l-809 -1462h-295z" />
<glyph unicode="0" d="M66 467q0 297 83.5 536t227 360.5t334.5 121.5q399 0 399 -472t-168.5 -752.5t-472.5 -280.5q-199 0 -301 122.5t-102 364.5zM369 461q0 -119 28.5 -175.5t96.5 -56.5q81 0 150 105t116 302t47 386q0 110 -30 161.5t-93 51.5q-79 0 -149 -103.5t-118 -302t-48 -368.5z " />
<glyph unicode="1" d="M182 1114l566 348h249l-309 -1462h-305l180 829q32 140 76 287l-62 -47q-59 -44 -262 -170z" />
<glyph unicode="2" d="M-49 0l43 213l477 424q180 159 248.5 254.5t68.5 174.5t-40.5 119t-109 40t-138 -34t-170.5 -118l-146 203q132 112 252 159.5t250 47.5q189 0 300.5 -98t111.5 -259q0 -105 -40.5 -199.5t-120.5 -187t-269 -247.5l-269 -222v-10h568l-54 -260h-962z" />
<glyph unicode="3" d="M14 59v267q169 -101 373 -101q157 0 242.5 63t85.5 177q0 172 -258 172h-138l46 221h73q166 0 263 62q96 62 96 172q0 67 -43 104t-121 37q-135 0 -287 -100l-127 204q126 82 234 114t245 32q191 0 298.5 -90.5t107.5 -244.5t-95 -261t-261 -135v-4q130 -26 198 -106 t68 -202q2 -202 -164.5 -331t-436.5 -129h-12q-239 0 -387 79z" />
<glyph unicode="4" d="M-25 303l48 234l770 925h311l-195 -919h170l-51 -240h-170l-63 -303h-293l63 303h-590zM305 543h311l58 248q13 62 40.5 166.5t41.5 138.5h-6q-34 -62 -132 -181z" />
<glyph unicode="5" d="M27 61v269q174 -99 352 -99q153 0 240.5 70.5t87.5 194.5q0 93 -57.5 140.5t-163 47.5t-216.5 -33l-104 78l207 733h755l-55 -262h-489l-88 -293q72 15 127 15q183 0 289 -103t106 -287v-6q0 -249 -160.5 -397.5t-438.5 -148.5h-11q-115 0 -216 22.5t-165 58.5z" />
<glyph unicode="6" d="M88 469q0 203 62 397q197 619 780 619q126 0 223 -27l-51 -246q-82 25 -191 25q-194 0 -314 -108q-119 -109 -185 -345h4q115 166 311 166q157 0 242.5 -97t85.5 -268.5t-71 -318.5q-142 -286 -468 -286q-211 0 -319.5 126t-108.5 363zM383 422q0 -90 40 -142.5 t107 -52.5q100 0 161 94q63 95 63 236q0 73 -34.5 114.5t-98 41.5t-118.5 -36q-120 -78 -120 -255z" />
<glyph unicode="7" d="M78 0l737 1202h-629l56 260h975l-41 -194l-752 -1268h-346z" />
<glyph unicode="8" d="M55 350q0 298 348 426q-165 132 -165 299v8q0 175 131 288.5t341 113.5h10.5h8.5q177 0 287 -92t110 -234v-8q0 -134 -80.5 -233.5t-230.5 -151.5q217 -141 217 -365v-7q0 -180 -141.5 -297t-365.5 -117h-11q-215 0 -337 100.5t-122 269.5zM352 387.5q0 -85.5 50 -133 t138.5 -47.5t143.5 53.5t55 133t-37 138t-120 111.5q-118 -46 -174 -108t-56 -147.5zM528 1094q0 -132 123 -201q185 72 185 221q0 67 -39 106.5t-108.5 39.5t-115 -46.5t-45.5 -119.5z" />
<glyph unicode="9" d="M86 12v256q112 -41 230 -41q228 0 348 187q58 89 100 258h-4q-111 -158 -295 -158q-163 0 -253 103q-89 104 -89 278t73 313q144 277 482 277q203 0 308.5 -123t105.5 -361q0 -279 -98.5 -531.5t-263 -371t-404.5 -118.5q-126 0 -240 32zM424 928q0 -86 37 -131t106 -45 q94 2 159 80.5t65 206.5v8q0 87 -36.5 138.5t-109.5 51.5h-6q-59 0 -110 -42.5t-78 -112.5t-27 -148v-6z" />
<glyph unicode=":" horiz-adv-x="584" d="M25 115q0 91 54 144.5t150 53.5q69 0 109.5 -38.5t40.5 -106.5q0 -87 -55.5 -141t-136 -54t-121.5 37.5t-41 104.5zM207 940q0 92 55.5 145.5t149.5 53.5q69 0 109 -39t40 -107q0 -86 -54.5 -140t-136 -54t-122.5 36.5t-41 104.5z" />
<glyph unicode=";" horiz-adv-x="584" d="M-102 -264q74 168 194 502h285l8 -23q-121 -260 -262 -479h-225zM207 940q0 92 55.5 145.5t149.5 53.5q69 0 109 -39t40 -107q0 -86 -54.5 -140t-136 -54t-122.5 36.5t-41 104.5z" />
<glyph unicode="&#x3c;" d="M109 641v143l952 496v-240l-643 -317l643 -281v-239z" />
<glyph unicode="=" d="M109 418v219h952v-219h-952zM109 807v217h952v-217h-952z" />
<glyph unicode="&#x3e;" d="M109 203v239l643 281l-643 317v240l952 -496v-143z" />
<glyph unicode="?" horiz-adv-x="940" d="M166 115q0 91 55 144.5t150 53.5q69 0 109 -38.5t40 -106.5q0 -87 -55 -141t-136 -54t-122 38t-41 104zM178 1358q230 125 445 125q177 0 280 -87.5t103 -244.5q0 -156 -111 -273q-55 -56 -190 -147q-65 -44 -97.5 -74t-52 -65t-37.5 -107h-258l14 78q20 104 75 178.5 t175 156t153.5 124.5t33.5 96q0 119 -133 119q-52 0 -107 -16.5t-201 -83.5z" />
<glyph unicode="@" horiz-adv-x="1753" d="M91 491v9q0 280 121 498t343 341t497 123q317 0 498.5 -163.5t181.5 -458.5q0 -174 -64.5 -322t-177.5 -230.5t-254 -82.5q-88 0 -144.5 38.5t-72.5 108.5h-6q-50 -77 -112.5 -112t-147.5 -35q-128 0 -198.5 80t-70.5 228.5t67 277t187 204.5t269 76q186 0 327 -55 l-106 -420q-27 -106 -27 -141q0 -68 58 -68q66 0 123.5 63.5t92.5 171.5t35 214q0 213 -123.5 325.5t-359.5 112.5q-204 0 -367.5 -94.5t-254.5 -266t-91 -391.5q0 -242 134 -381q134 -137 376 -137q114 0 218.5 20t222.5 66v-186q-230 -90 -465 -90h-10q-208 0 -368.5 86 t-245.5 240.5t-85 350.5zM712 537q0 -150 94 -150q141 0 213 270l57 222q-34 10 -82 10q-82 0 -145 -51t-100 -137.5t-37 -163.5z" />
<glyph unicode="A" horiz-adv-x="1286" d="M-123 0l766 1468h373l147 -1468h-297l-24 348h-473l-172 -348h-320zM494 608h333l-26 350q-10 124 -10 253v36q-41 -114 -109 -254z" />
<glyph unicode="B" horiz-adv-x="1270" d="M53 0l309 1462h426q463 0 463 -325q0 -150 -83 -247.5t-236 -129.5v-6q102 -27 160.5 -98t58.5 -179q0 -229 -152.5 -353t-423.5 -124h-522zM412 256h180q117 0 183.5 58t66.5 161q0 162 -183 162h-165zM545 883h149q120 0 181 48t61 140q0 137 -170 137h-152z" />
<glyph unicode="C" horiz-adv-x="1253" d="M123 546q0 267 104 488t277.5 336t400.5 115q122 0 221 -23t209 -82l-118 -250q-107 59 -174.5 78t-137.5 19q-131 0 -236.5 -80.5t-170 -238t-64.5 -332.5t69 -255.5t216 -80.5t340 77v-260q-201 -77 -400 -77q-254 0 -395 149.5t-141 416.5z" />
<glyph unicode="D" horiz-adv-x="1386" d="M53 0l309 1462h396q269 0 417 -142.5t148 -416t-98 -480.5t-283 -315t-438 -108h-451zM412 256h106q149 0 259 77t171.5 224.5t61.5 335.5q0 153 -72.5 234t-208.5 81h-115z" />
<glyph unicode="E" horiz-adv-x="1110" d="M53 0l309 1462h818l-54 -254h-512l-67 -321h477l-55 -254h-477l-80 -377h512l-54 -256h-817z" />
<glyph unicode="F" horiz-adv-x="1087" d="M53 0l309 1462h814l-54 -254h-508l-79 -377h473l-56 -253h-473l-121 -578h-305z" />
<glyph unicode="G" horiz-adv-x="1413" d="M123 545q0 271 106.5 487.5t300.5 334.5t449 118q218 0 410 -99l-115 -251q-164 88 -312.5 88t-269.5 -82.5t-189.5 -237t-68.5 -328t72 -254.5t223 -81q75 0 170 24l66 299h-267l56 258h563l-162 -762q-129 -45 -247.5 -62t-243.5 -17q-259 0 -400 147t-141 418z" />
<glyph unicode="H" horiz-adv-x="1434" d="M53 0l309 1462h306l-121 -573h471l121 573h305l-309 -1462h-306l134 631h-471l-134 -631h-305z" />
<glyph unicode="I" horiz-adv-x="659" d="M53 0l312 1462h305l-312 -1462h-305z" />
<glyph unicode="J" horiz-adv-x="678" d="M-322 -150q91 -20 164 -20q100 0 161 61t89 191l293 1380h305l-303 -1423q-53 -246 -175.5 -357.5t-346.5 -111.5q-94 0 -187 27v253z" />
<glyph unicode="K" horiz-adv-x="1255" d="M53 0l309 1462h306l-152 -702l158 205l409 497h361l-594 -700l291 -762h-338l-211 592l-125 -70l-109 -522h-305z" />
<glyph unicode="L" horiz-adv-x="1061" d="M53 0l309 1462h306l-256 -1206h512l-54 -256h-817z" />
<glyph unicode="M" horiz-adv-x="1802" d="M53 0l309 1462h404l68 -1093h4l551 1093h423l-309 -1462h-280l145 692q52 248 105 441h-5l-569 -1133h-281l-61 1133h-4q-10 -81 -40 -241t-185 -892h-275z" />
<glyph unicode="N" horiz-adv-x="1546" d="M53 0l309 1462h357l340 -1077h4q12 74 39.5 218.5t179.5 858.5h274l-309 -1462h-342l-356 1106h-6l-4 -32q-32 -218 -66 -386l-145 -688h-275z" />
<glyph unicode="O" horiz-adv-x="1495" d="M123 539q0 263 99 485.5t273 341.5t402 119q255 0 395 -144.5t140 -402.5q0 -284 -98.5 -506t-270 -337t-397.5 -115q-256 0 -400 147q-143 149 -143 412zM434 537q0 -146 66 -221.5t187.5 -75.5t221 87t155.5 246.5t56 356.5q0 142 -65 219.5t-184.5 77.5t-220.5 -92 t-158.5 -251.5t-57.5 -346.5z" />
<glyph unicode="P" horiz-adv-x="1188" d="M53 0l309 1462h338q490 0 490 -426q0 -241 -170 -378.5t-467 -137.5h-86l-109 -520h-305zM522 774h56q142 0 223.5 69t81.5 185q0 180 -195 180h-74z" />
<glyph unicode="Q" horiz-adv-x="1495" d="M123 539q0 263 99 485.5t273 341.5t402 119q255 0 395 -144.5t140 -402.5q0 -316 -122.5 -555.5t-334.5 -337.5l254 -393h-359l-178 328h-26q-256 0 -400 147q-143 149 -143 412zM434 537q0 -146 66 -221.5t187.5 -75.5t221 87t155.5 246.5t56 356.5q0 142 -65 219.5 t-184.5 77.5t-220.5 -92t-158.5 -251.5t-57.5 -346.5z" />
<glyph unicode="R" horiz-adv-x="1247" d="M53 0l309 1462h359q236 0 355.5 -101.5t119.5 -299.5q0 -158 -83 -271.5t-239 -168.5l261 -621h-332l-207 561h-119l-119 -561h-305zM530 813h78q134 0 205.5 58t71.5 173q0 83 -48 123.5t-149 40.5h-74z" />
<glyph unicode="S" horiz-adv-x="1085" d="M41 70v274q194 -108 358 -108q112 0 175 42.5t63 116.5q0 77 -52 136q-26 30 -124 102q-139 100 -194.5 197t-55.5 208v8q0 189 138.5 313t353.5 124h10q217 0 397 -99l-109 -233q-157 74 -288 74q-83 0 -136 -45t-53 -112t33 -113.5t148 -120.5q123 -82 182 -178.5 t59 -223.5q0 -210 -148 -331t-401 -121q-221 0 -356 90z" />
<glyph unicode="T" horiz-adv-x="1087" d="M168 1204l55 258h1010l-55 -258h-353l-254 -1204h-305l254 1204h-352z" />
<glyph unicode="U" horiz-adv-x="1415" d="M141 401q0 72 15 138l196 923h305l-194 -919q-17 -76 -17 -125q0 -178 189 -178q122 0 194 75.5t105 229.5l194 917h306l-201 -946q-57 -266 -218 -401t-419 -135q-212 0 -334 113q-121 114 -121 308z" />
<glyph unicode="V" horiz-adv-x="1208" d="M184 1462h295l51 -880q3 -32 3 -101v-37q-1 -98 -5 -145h7q78 221 110 283l432 880h316l-748 -1462h-334z" />
<glyph unicode="W" horiz-adv-x="1831" d="M184 1462h293v-798q0 -65 -4.5 -183t-9.5 -164h6q27 77 70 188t57 138l369 819h270l21 -873q0 -146 -9 -272h6q48 141 131 349l330 796h309l-647 -1462h-346l-22 721l-2 139q0 95 4 158h-4q-48 -151 -115 -299l-324 -719h-338z" />
<glyph unicode="X" horiz-adv-x="1241" d="M-117 0l576 764l-238 698h320l153 -518l363 518h344l-545 -725l268 -737h-331l-172 543l-396 -543h-342z" />
<glyph unicode="Y" horiz-adv-x="1155" d="M186 1462h312l129 -592l374 592h342l-618 -903l-119 -559h-303l119 559z" />
<glyph unicode="Z" horiz-adv-x="1098" d="M-61 0l38 201l777 1005h-543l53 256h936l-41 -202l-782 -1004h596l-53 -256h-981z" />
<glyph unicode="[" horiz-adv-x="678" d="M-37 -324l381 1786h473l-45 -211h-215l-291 -1364h215l-45 -211h-473z" />
<glyph unicode="\" horiz-adv-x="862" d="M221 1462h260l224 -1462h-267z" />
<glyph unicode="]" horiz-adv-x="678" d="M-137 -324l45 211h213l291 1364h-215l45 211h473l-381 -1786h-471z" />
<glyph unicode="^" horiz-adv-x="1081" d="M20 520l619 950h147l277 -950h-223l-174 633l-402 -633h-244z" />
<glyph unicode="_" horiz-adv-x="819" d="M-186 -324l30 140h822l-31 -140h-821z" />
<glyph unicode="`" horiz-adv-x="1135" d="M508 1548v21h311q36 -150 115 -303v-25h-184q-169 166 -242 307z" />
<glyph unicode="a" horiz-adv-x="1217" d="M90 388.5q0 195.5 72 375t189 276.5q117 99 257 99q197 0 277 -164h8l57 143h232l-238 -1118h-229l14 145h-4q-133 -165 -319 -165q-147 0 -232 106q-84 107 -84 302.5zM395 399q0 -176 129 -176h2q67 0 130.5 65.5t103 182t39.5 247.5v13q0 71 -38.5 117.5t-104.5 46.5 t-126.5 -71t-97.5 -190.5t-37 -234.5z" />
<glyph unicode="b" horiz-adv-x="1219" d="M37 0l330 1556h301l-62 -288q-41 -183 -84 -299h8q79 99 142.5 134.5t140.5 35.5q146 0 230.5 -107.5t84.5 -297t-67.5 -367.5t-187 -282.5t-263.5 -104.5q-194 0 -276 163h-8l-58 -143h-231zM420 399q0 -81 37 -128.5t103 -47.5t126.5 68t98.5 190.5t38 237.5 q0 176 -131 176q-68 0 -129.5 -64.5t-102 -180t-40.5 -251.5z" />
<glyph unicode="c" horiz-adv-x="989" d="M90 398.5q0 203.5 74.5 377t209.5 268.5q136 95 313 95t323 -72l-92 -229q-45 19 -72 30q-73 27 -155.5 27t-151 -65t-106.5 -176t-38 -238q0 -95 45 -144t121 -49t138.5 20.5t142.5 61.5v-246q-151 -79 -343.5 -79t-300.5 107.5t-108 311z" />
<glyph unicode="d" horiz-adv-x="1217" d="M90 387.5q0 193.5 71.5 373t188 279t258.5 99.5q83 0 142 -37.5t112 -126.5h8l2 28q6 112 25 195l76 358h301l-330 -1556h-229l14 145h-4q-71 -86 -148 -125.5t-171 -39.5q-146 0 -231 107t-85 300.5zM395 399q0 -176 137 -176h5q63 0 124.5 68t99.5 182.5t38 233.5v12 q0 81 -37.5 128.5t-104.5 47.5t-127.5 -71t-97.5 -190.5t-37 -234.5z" />
<glyph unicode="e" horiz-adv-x="1141" d="M90 413.5q0 207.5 82.5 376.5t223 259t319 90t277 -81.5t98.5 -223.5q0 -187 -167 -288.5t-477 -101.5h-51l-2 -21v-20q0 -92 52 -144t144 -52t164 20t169 66v-227q-174 -86 -387 -86t-329 113t-116 320.5zM428 647h45q154 0 241 48t87 132q0 95 -105 95q-88 0 -166 -80 t-102 -195z" />
<glyph unicode="f" horiz-adv-x="764" d="M-219 -225q62 -21 120.5 -21t103.5 41.5t63 128.5l204 965h-163l30 145l183 84l18 84q41 191 139 278t273 87q133 0 235 -49l-80 -224q-68 31 -128 31t-96 -39t-48 -106l-12 -62h219l-49 -229h-220l-215 -1010q-77 -371 -403 -371q-105 0 -174 25v242z" />
<glyph unicode="g" horiz-adv-x="1108" d="M-115 -209q0 103 69 176t214 121q-74 47 -74 133q0 71 44.5 122.5t146.5 98.5q-66 49 -96.5 112.5t-30.5 152.5q0 199 125.5 315.5t341.5 116.5q82 0 166 -23h395l-35 -166l-174 -41q16 -51 16 -118q0 -195 -121 -309q-122 -113 -329 -113q-60 0 -99 10q-84 -27 -84 -78 q0 -32 28 -47.5t91 -24.5l137 -18q163 -21 237.5 -84.5t74.5 -183.5q0 -211 -155.5 -323t-446.5 -112q-209 0 -325 75.5t-116 207.5zM150 -172q0 -115 194 -115q149 0 227 44.5t78 127.5q0 39 -32.5 60.5t-137.5 34.5l-114 14q-105 -14 -160 -57t-55 -109zM442 677.5 q0 -116.5 103 -116.5q75 0 121.5 76.5t46.5 193.5t-99 117q-77 0 -124.5 -77t-47.5 -193.5z" />
<glyph unicode="h" horiz-adv-x="1237" d="M37 0l330 1556h301l-60 -278q-20 -92 -86 -309h8q137 170 314 170q138 0 213.5 -83.5t75.5 -238.5q0 -71 -23 -180l-133 -637h-301l137 653q16 65 16 119q0 123 -108 123q-92 0 -166.5 -113.5t-118.5 -318.5l-98 -463h-301z" />
<glyph unicode="i" horiz-adv-x="608" d="M37 0l237 1118h301l-237 -1118h-301zM322 1380q0 86 47 131t127 45q157 0 157 -120q0 -83 -45 -131t-135 -48q-151 0 -151 123z" />
<glyph unicode="j" horiz-adv-x="608" d="M-264 -225q62 -21 114 -21q137 0 173 170l253 1194h302l-265 -1239q-77 -371 -403 -371q-105 0 -174 25v242zM324 1380q0 86 47 131t127 45q157 0 157 -120q0 -83 -45 -131t-135 -48q-151 0 -151 123z" />
<glyph unicode="k" horiz-adv-x="1163" d="M37 0l330 1556h301l-148 -694q-6 -35 -29 -117l-28 -102h4l453 475h344l-498 -504l285 -614h-336l-183 420l-120 -72l-74 -348h-301z" />
<glyph unicode="l" horiz-adv-x="608" d="M37 0l330 1556h301l-330 -1556h-301z" />
<glyph unicode="m" horiz-adv-x="1853" d="M37 0l237 1118h230l-21 -207h6q145 228 359 228t258 -228h6q68 110 160.5 169t197.5 59q135 0 207 -84.5t72 -237.5q0 -74 -23 -180l-133 -637h-301l138 653q16 65 16 119q0 123 -98 123q-92 0 -166.5 -112t-118.5 -318l-96 -465h-301l137 653q16 65 16 119 q0 123 -98 123q-92 0 -166.5 -113.5t-118.5 -318.5l-98 -463h-301z" />
<glyph unicode="n" horiz-adv-x="1237" d="M37 0l237 1118h230l-21 -207h6q145 228 355 228q138 0 213.5 -83.5t75.5 -238.5q0 -71 -23 -180l-133 -637h-301l137 653q16 65 16 119q0 123 -108 123q-92 0 -166.5 -113.5t-118.5 -318.5l-98 -463h-301z" />
<glyph unicode="o" horiz-adv-x="1198" d="M90 418.5q0 202.5 71 370.5q72 168 207.5 259t323.5 91t302 -118.5t114 -324.5v-8q0 -314 -158.5 -511t-420.5 -197h-11q-195 0 -312 117q-116 119 -116 321.5zM393 410q0 -185 150 -185q75 0 135 61.5t93.5 170t33.5 239.5q0 197 -143 197q-75 0 -135 -61 q-60 -64 -97 -180t-37 -242z" />
<glyph unicode="p" horiz-adv-x="1219" d="M-68 -492l342 1610h230l-17 -170h9q138 191 317 191q146 0 230 -108q85 -106 85 -298.5t-68.5 -369t-187 -280t-262.5 -103.5q-85 0 -144.5 37.5t-109.5 125.5h-8q-12 -161 -43 -295l-72 -340h-301zM420 399q0 -81 37 -128.5t103 -47.5t126.5 68t98.5 190.5t38 237.5 q0 176 -131 176h-2q-66 0 -129.5 -66.5t-102 -180t-38.5 -237.5v-12z" />
<glyph unicode="q" horiz-adv-x="1217" d="M90 390q0 194 72 373.5t189 276.5q117 99 257 99q88 0 154 -38t123 -126h8l57 143h232l-342 -1610h-301l73 338q26 122 84 304h-8q-70 -92 -141 -131t-156 -39q-135 0 -218 108t-83 302zM395 413q0 -101 36 -145.5t102 -44.5t129.5 70.5t100 181.5t36.5 244 q0 81 -37.5 128.5t-104.5 47.5t-127.5 -71t-97.5 -190.5t-37 -220.5z" />
<glyph unicode="r" horiz-adv-x="862" d="M37 0l237 1118h230l-21 -207h6q147 228 353 228q57 0 96 -11l-66 -290q-44 16 -100 16q-115 0 -204 -92q-86 -91 -124 -262l-106 -500h-301z" />
<glyph unicode="s" horiz-adv-x="969" d="M23 45v248q158 -90 319 -90q81 0 131.5 32.5t50.5 88.5q0 43 -36.5 76.5t-144.5 93.5t-156 128t-48 160q0 171 111 264t313 93t365 -95l-99 -215q-139 84 -258 84q-57 0 -92 -25.5t-35 -66.5t32.5 -71t119.5 -74q122 -63 177.5 -136.5t55.5 -170.5q0 -188 -124.5 -288.5 t-339.5 -100.5t-342 65z" />
<glyph unicode="t" horiz-adv-x="840" d="M94 889l29 147l196 84l132 236h194l-49 -238h283l-50 -229h-282l-115 -539q-6 -30 -6 -53q0 -74 88 -74q63 0 162 35v-225q-112 -53 -264 -53t-222.5 63t-70.5 195q0 50 12 112l115 539h-152z" />
<glyph unicode="u" horiz-adv-x="1237" d="M111 301q0 93 24 213l127 604h301l-137 -653q-16 -65 -16 -119q0 -123 108 -123q92 0 166.5 113.5t118.5 318.5l98 463h301l-237 -1118h-230l21 207h-6q-146 -227 -355 -227q-138 0 -211 82.5t-73 238.5z" />
<glyph unicode="v" horiz-adv-x="1049" d="M102 1118h295l45 -586q7 -125 7 -231h6q57 157 92 223l297 594h323l-604 -1118h-323z" />
<glyph unicode="w" horiz-adv-x="1614" d="M125 1118h285v-495l-4 -167l-7 -171h4l14 41q5 14 49.5 133t47.5 123l231 536h328v-536q0 -150 -10 -297h6l28 80q77 218 95 258l219 495h307l-530 -1118h-330l-6 520q0 164 10 340h-6q-61 -176 -123 -319l-233 -541h-324z" />
<glyph unicode="x" horiz-adv-x="1087" d="M-100 0l479 573l-225 545h321l115 -334l244 334h354l-467 -561l244 -557h-326l-125 342l-264 -342h-350z" />
<glyph unicode="y" horiz-adv-x="1063" d="M-141 -233q65 -13 116 -13q84 0 147.5 47.5t117.5 149.5l26 49l-164 1118h295l56 -518q14 -126 14 -293h6q8 20 26 71q39 110 83 202l260 538h327l-680 -1278q-177 -332 -483 -332q-91 0 -147 19v240z" />
<glyph unicode="z" horiz-adv-x="932" d="M-47 0l35 180l575 705h-397l51 233h750l-43 -200l-566 -685h439l-49 -233h-795z" />
<glyph unicode="{" horiz-adv-x="727" d="M-8 459l45 229q125 0 194.5 42.5t90.5 137.5l61 285q38 170 130.5 239.5t270.5 69.5h84l-49 -225q-89 -2 -130 -34t-56 -107l-66 -297q-45 -208 -276 -236v-8q168 -52 168 -217q0 -44 -15 -113l-36 -178q-7 -27 -7 -51q0 -51 31.5 -72.5t93.5 -21.5v-226h-53 q-167 0 -253.5 63.5t-86.5 184.5q0 55 14 125l39 184q15 69 15 86q0 140 -209 140z" />
<glyph unicode="|" d="M455 -465v2015h219v-2015h-219z" />
<glyph unicode="}" horiz-adv-x="727" d="M-100 -98q92 3 136.5 35.5t59.5 105.5l66 297q24 108 93 164t183 71v9q-168 51 -168 217q0 43 15 112l37 179q6 30 6 51q0 52 -35 73t-111 21l41 225h33q340 0 340 -248q0 -54 -14 -124l-39 -185q-15 -69 -15 -86q0 -139 209 -139l-45 -229q-124 0 -193.5 -43t-90.5 -138 l-62 -284q-38 -170 -130.5 -240t-270.5 -70h-45v226z" />
<glyph unicode="~" d="M109 551v231q100 109 256 109q63 0 116 -13.5t161.5 -59.5t184.5 -46q111 0 234 121v-231q-103 -109 -256 -109q-57 0 -109 11q-52 13 -144.5 51.5t-130 47.5t-85 9t-110 -33t-117.5 -88z" />
<glyph unicode="&#xa2;" d="M164 584q0 192 62.5 354.5t178 263t267.5 123.5l33 158h188l-35 -158q117 -13 225 -65l-92 -230q-66 29 -114.5 43t-108.5 14q-133 0 -216 -143t-83 -336q0 -95 44.5 -143.5t120.5 -48.5t138.5 20.5t142.5 61.5v-246q-138 -71 -299 -80l-41 -192h-188l49 210 q-134 36 -203 136t-69 258z" />
<glyph unicode="&#xa3;" d="M-12 0l49 246q196 48 244 264l22 104h-192l45 220h192l49 247q41 198 162 301t314 103t368 -86l-113 -232q-142 68 -228 68t-133 -40.5t-67 -131.5l-47 -229h299l-45 -220h-299l-18 -84q-42 -195 -209 -270h655l-55 -260h-993z" />
<glyph unicode="&#xa5;" d="M88 221l37 178h252l29 138h-252l39 178h196l-192 747h297l114 -590l371 590h311l-506 -747h203l-39 -178h-252l-28 -138h252l-37 -178h-252l-47 -221h-291l47 221h-252z" />
<glyph unicode="&#xa8;" horiz-adv-x="1135" d="M397 1382q0 77 42 117.5t120 40.5q133 0 133 -108q0 -75 -40 -117.5t-120 -42.5q-135 0 -135 110zM799 1382q0 78 42 118t113 40q140 0 140 -108q0 -75 -40.5 -117.5t-119.5 -42.5q-135 0 -135 110z" />
<glyph unicode="&#xa9;" horiz-adv-x="1704" d="M125 731.5q0 199.5 100.5 375t275.5 276t375 100.5t375 -99t275 -276q102 -176 102 -376t-99 -374q-97 -174 -271.5 -276t-381 -102t-381.5 103t-272.5 276t-97.5 372.5zM266 730.5q0 -163.5 81 -304.5q83 -141 224.5 -223t306.5 -82t306.5 82.5t221.5 223.5 q81 141 81 304t-81 303q-80 142 -222 224.5t-306.5 82.5t-307 -82.5t-223.5 -223.5t-81 -304.5zM485 726.5q0 219.5 117 345.5q118 126 326 126q142 0 284 -72l-75 -174q-113 58 -205 58q-215 0 -215 -287q0 -134 55 -203t160 -69q44 0 111.5 16.5t121.5 42.5v-191 q-131 -57 -262 -57q-196 0 -307 122.5t-111 342z" />
<glyph unicode="&#xab;" horiz-adv-x="1151" d="M72 551v18l401 463l191 -155l-279 -334l135 -350l-246 -103zM559 551v18l402 463l190 -155l-279 -334l136 -350l-246 -103z" />
<glyph unicode="&#xad;" horiz-adv-x="659" d="M41 424l53 250h524l-53 -250h-524z" />
<glyph unicode="&#xae;" horiz-adv-x="1704" d="M125 731.5q0 199.5 100.5 375t275.5 276t375 100.5t375 -99t275 -276q102 -176 102 -376t-99 -374q-97 -174 -271.5 -276t-381 -102t-381.5 103t-272.5 276t-97.5 372.5zM266 730.5q0 -163.5 81 -304.5q83 -141 224.5 -223t306.5 -82t306.5 82.5t221.5 223.5 q81 141 81 304t-81 303q-80 142 -222 224.5t-306.5 82.5t-307 -82.5t-223.5 -223.5t-81 -304.5zM571 293v874h308q174 0 266 -68t92 -200q0 -179 -174 -246l197 -360h-254l-138 297h-67v-297h-230zM801 758h51q73 0 113.5 31.5t40.5 91.5t-36 89t-116 29h-53v-241z" />
<glyph unicode="&#xb4;" horiz-adv-x="1135" d="M483 1241v25q79 88 222 303h335v-17q-48 -57 -155.5 -153.5t-192.5 -157.5h-209z" />
<glyph unicode="&#xb8;" horiz-adv-x="420" d="M-207 -301q64 -23 125 -23q102 0 102 82q0 72 -141 88l96 154h185l-39 -72q141 -50 141 -178q0 -116 -83 -179t-234 -63q-85 0 -152 23v168z" />
<glyph unicode="&#xbb;" horiz-adv-x="1151" d="M0 227l279 334l-136 350l246 103l203 -461v-18l-402 -463zM487 227l279 334l-135 350l246 103l202 -461v-18l-401 -463z" />
<glyph unicode="&#x2c6;" horiz-adv-x="1135" d="M311 1241v25q63 57 152 146t143 157h338q54 -128 176 -303v-25h-198q-63 53 -162 168q-106 -90 -232 -168h-217z" />
<glyph unicode="&#x2da;" horiz-adv-x="1182" d="M532 1475.5q0 109.5 68 174t178.5 64.5t183 -65t72.5 -171t-70 -172.5t-182 -66.5t-181 63.5t-69 173zM684 1476q0 -45 24.5 -70.5t69.5 -25.5t72 26.5t27 70.5t-27 70t-70 26t-69.5 -26t-26.5 -71z" />
<glyph unicode="&#x2dc;" horiz-adv-x="1135" d="M315 1239q59 309 281 309q44 0 87.5 -16t71.5 -36q73 -52 122 -52q33 0 57.5 25t46.5 81h172q-66 -309 -287 -309q-44 0 -86.5 16.5t-69.5 36.5q-75 52 -124 52q-31 0 -55.5 -28t-38.5 -79h-177z" />
<glyph unicode="&#x5b0;" horiz-adv-x="0" d="M508 -458q0 60 41 92q30 24 73.5 24t60.5 -20t17 -37q0 -61 -41 -93q-30 -23 -73.5 -23t-60.5 19.5t-17 37.5zM559 -218q0 62 41 94q30 23 73.5 23t60.5 -20t17 -38q0 -60 -41 -92q-30 -23 -73.5 -23t-60.5 19.5t-17 36.5z" />
<glyph unicode="&#x5b1;" horiz-adv-x="0" d="M308 -233q0 62 41 93q30 24 73 24t60.5 -20t17.5 -38q0 -61 -42 -92q-30 -23 -73 -23t-60 19.5t-17 36.5zM409 -473q0 61 41 93q30 23 73 23t60 -20t17 -37q0 -61 -41 -92q-30 -24 -73.5 -24t-60 19.5t-16.5 37.5zM604 -234q0 64 41 95q30 23 73.5 23t61.5 -20.5 t18 -38.5q0 -60 -42 -91q-31 -23 -75 -23t-60.5 19t-16.5 36zM819 -473q0 60 41 93q30 23 73.5 23t60.5 -20t17 -37q0 -61 -41 -92q-30 -24 -73.5 -24t-60.5 19.5t-17 37.5zM870 -233q0 62 41 93q30 24 73.5 24t60.5 -20t17 -38q0 -60 -41 -92q-30 -23 -73.5 -23t-60.5 19.5 t-17 36.5z" />
<glyph unicode="&#x5b2;" horiz-adv-x="0" d="M365 -259l24 117h367l-24 -117h-367zM775 -473q0 61 41 93q30 23 73 23t60 -20t17 -37q0 -61 -41 -92q-30 -24 -73.5 -24t-60 19.5t-16.5 37.5zM826 -233q0 17 3 30q8 41 38 64t73 23t60 -20t17 -38q0 -60 -41 -92q-30 -23 -73.5 -23t-60 19.5t-16.5 36.5z" />
<glyph unicode="&#x5b3;" horiz-adv-x="0" d="M365 -259l24 117h367l-24 -117h-128l-43 -202h-111l43 202h-128zM778 -473q0 60 41 93q30 23 73.5 23t60.5 -20t17 -37q0 -61 -41 -92q-30 -24 -73.5 -24t-60.5 19.5t-17 37.5zM829 -233q0 62 41 93q30 24 73.5 24t60.5 -20t17 -38q0 -60 -41 -92q-30 -23 -73.5 -23 t-60.5 19.5t-17 36.5z" />
<glyph unicode="&#x5b4;" horiz-adv-x="0" d="M531 -228q0 63 41 94q30 23 73.5 23t61.5 -20.5t18 -38.5q0 -59 -41 -90q-31 -24 -75 -24t-61 19t-17 37z" />
<glyph unicode="&#x5b5;" horiz-adv-x="0" d="M384 -208.5q0 17.5 3 29.5q8 41 38 64t73 23t60 -20t17 -38q0 -60 -40 -92q-30 -23 -73.5 -23t-60.5 19.5t-17 37zM679 -208.5q0 17.5 3 29.5q8 41 38 64t74 23t62 -20.5t18 -38.5q0 -59 -41 -91q-31 -23 -75 -23t-61.5 19.5t-17.5 37z" />
<glyph unicode="&#x5b6;" horiz-adv-x="0" d="M410 -233q0 17 3 30q8 41 38 64t73 23t60 -20t17 -38q0 -60 -41 -92q-30 -23 -73.5 -23t-60 19.5t-16.5 36.5zM510 -473q0 60 41 93q30 23 73.5 23t60.5 -20t17 -37q0 -61 -41 -92q-30 -24 -73.5 -24t-60.5 19.5t-17 37.5zM705 -233q0 63 41 94q30 23 74 23t62 -20.5 t18 -38.5q0 -60 -42 -91q-31 -23 -75 -23t-61 19t-17 37z" />
<glyph unicode="&#x5b7;" horiz-adv-x="0" d="M420 -234l24 116h393l-24 -116h-393z" />
<glyph unicode="&#x5b8;" horiz-adv-x="0" d="M447 -255l25 117h382l-25 -117h-136l-43 -202h-111l43 202h-135z" />
<glyph unicode="&#x5b9;" horiz-adv-x="0" d="M532 1466q0 63 41 94q30 23 73.5 23t61.5 -20.5t18 -38.5q0 -59 -41 -90q-31 -24 -75 -24t-61 19t-17 37z" />
<glyph unicode="&#x5ba;" horiz-adv-x="0" d="M532 1466q0 63 41 94q30 23 73.5 23t61.5 -20.5t18 -38.5q0 -59 -41 -90q-31 -24 -75 -24t-61 19t-17 37z" />
<glyph unicode="&#x5bb;" horiz-adv-x="0" d="M428 -243q0 61 41 93q30 23 73 23t59.5 -20t16.5 -38q0 -61 -40 -92q-30 -23 -73.5 -23t-60 19.5t-16.5 37.5zM571 -420q0 62 41 94q30 23 73.5 23t60.5 -20t17 -38q0 -60 -40 -91q-30 -24 -73.5 -24t-61 19.5t-17.5 36.5zM719 -596q0 64 41 95q30 23 73.5 23t61.5 -20.5 t18 -38.5q0 -59 -42 -91q-31 -23 -75 -23t-60.5 19t-16.5 36z" />
<glyph unicode="&#x5bc;" horiz-adv-x="0" d="M531 626q0 63 41 94q30 23 73.5 23t61.5 -20.5t18 -38.5q0 -59 -41 -90q-31 -24 -75 -24t-61 19t-17 37z" />
<glyph unicode="&#x5bd;" horiz-adv-x="1256" d="M539 -509l74 352h103l-74 -352h-103z" />
<glyph unicode="&#x5be;" horiz-adv-x="659" d="M34 1040l54 250h537l-54 -250h-537z" />
<glyph unicode="&#x5c1;" horiz-adv-x="0" d="M479 1466q0 63 41 94q30 23 73.5 23t61.5 -20.5t18 -38.5q0 -59 -41 -90q-31 -24 -75 -24t-61 19t-17 37z" />
<glyph unicode="&#x5c2;" horiz-adv-x="0" d="M532 1466q0 63 41 94q30 23 73.5 23t61.5 -20.5t18 -38.5q0 -59 -41 -90q-31 -24 -75 -24t-61 19t-17 37z" />
<glyph unicode="&#x5c7;" horiz-adv-x="0" d="M125 -210l21 100h410l-21 -100h-161l-49 -234h-93l49 234h-156z" />
<glyph unicode="&#x5d0;" horiz-adv-x="1329" d="M-20 0l98 461q10 50 22.5 88.5t38.5 85.5t61 82.5t91.5 68t128.5 52.5l-191 452h346l166 -442l83 -197q48 20 75.5 62.5t41.5 111.5l100 465h304l-98 -462q-11 -50 -23.5 -88.5t-38 -85.5t-60 -82t-90.5 -67.5t-127 -52.5l192 -452h-347l-248 639q-51 -20 -79 -62.5 t-42 -112.5l-100 -464h-304z" />
<glyph unicode="&#x5d1;" horiz-adv-x="1182" d="M-37 0l49 233h579l130 611q8 38 8 70q0 161 -213 161q-128 0 -280 -18l-50 -6l51 241q151 18 345 18t292.5 -34t137 -95.5t38.5 -141.5t-24 -196l-130 -610h148l-49 -233h-1032z" />
<glyph unicode="&#x5d2;" horiz-adv-x="951" d="M-69 -9l82 283q2 -2 24 -5.5t45.5 -3.5t63 1.5t99.5 19.5q84 25 145 95t81 163l77 364q25 115 -25 147q-22 14 -61 14q-84 0 -154 -17l-24 -6l51 241q93 23 204 23t178 -21t101 -55q56 -55 56 -170q0 -58 -21 -156l-193 -908h-231l-5 188h-15q-6 -8 -17 -22.5t-49 -50 t-79 -63t-105 -50t-129 -22.5q-40 0 -99 11z" />
<glyph unicode="&#x5d3;" horiz-adv-x="1121" d="M131 1057l49 233h1031l-47 -221q-44 -16 -98 -47q-58 -37 -88 -88t-47 -133l-170 -801h-305l172 808q11 55 36.5 100t53.5 70q58 53 95 66l17 6l2 7h-701z" />
<glyph unicode="&#x5d4;" horiz-adv-x="1345" d="M21 0l175 823h306l-175 -823h-306zM241 1036l49 231q215 43 529.5 43t394.5 -124q41 -66 41 -155.5t-24 -187.5l-179 -843h-306l179 844q8 38 8 70q0 161 -213 161q-90 0 -210 -9.5t-194 -19.5z" />
<glyph unicode="&#x5d5;" horiz-adv-x="625" d="M23 0l274 1290h305l-274 -1290h-305z" />
<glyph unicode="&#x5d6;" horiz-adv-x="701" d="M22 0l92 434q44 207 126 345q77 128 150 189q70 59 106 75l16 7l2 7h-314l49 233h542l-49 -233q-57 -38 -110.5 -103.5t-88 -127t-59 -139t-35 -119t-30.5 -134.5l-92 -434h-305z" />
<glyph unicode="&#x5d7;" horiz-adv-x="1345" d="M21 0l269 1267q215 43 529.5 43t394.5 -124q41 -66 41 -155.5t-24 -187.5l-179 -843h-306l179 844q8 38 8 70q0 161 -213 161q-68 0 -166 -7l-227 -1068h-306z" />
<glyph unicode="&#x5d8;" horiz-adv-x="1330" d="M129 439.5q0 89.5 24 205.5l137 643h307q-94 -443 -128 -602t-34 -244q0 -217 168 -217q120 0 200 99t127 321q36 170 36 267q0 84 -33 116q-24 24 -56 32t-87 8l-65 -5l48 225q77 22 165 22t153 -20q139 -44 173 -191q13 -57 13 -108q0 -154 -40 -346 q-68 -322 -248 -493.5t-448 -171.5q-150 0 -252.5 76.5t-141.5 224.5q-18 69 -18 158.5z" />
<glyph unicode="&#x5d9;" horiz-adv-x="592" d="M105 436l182 854h305l-127 -596l-258 -258h-102z" />
<glyph unicode="&#x5da;" horiz-adv-x="1093" d="M139 1053l50 235q182 22 380 22q118 0 202.5 -34t130 -90t65.5 -130t20 -146q0 -86 -23 -191l-258 -1211h-306l264 1242q16 73 16 127.5t-17.5 100.5t-63.5 71.5t-119 25.5q-128 0 -341 -22z" />
<glyph unicode="&#x5db;" horiz-adv-x="1055" d="M-69 8l50 238q158 -20 332 -20q147 0 223 92q68 81 98 222l44 210q15 70 15 125q0 200 -200 200q-127 0 -340 -22l50 235q182 22 379 22q118 0 202.5 -34t130.5 -90t66 -130t20 -146q0 -86 -23 -191l-32 -148q-83 -398 -338 -525q-132 -66 -308 -66q-229 0 -369 28z" />
<glyph unicode="&#x5dc;" horiz-adv-x="1115" d="M161 1057l106 499h305l-56 -266h679l-42 -198l-306 -613l-209 -479h-297l209 479l288 578h-677z" />
<glyph unicode="&#x5dd;" horiz-adv-x="1345" d="M21 0l269 1267q215 43 506 43t394 -90q72 -64 72 -183q0 -48 -12 -106l-198 -931h-1031zM376 233h419l149 698q4 21 4 40q0 58 -50 79q-34 15 -74.5 20t-106 5t-163.5 -7z" />
<glyph unicode="&#x5de;" horiz-adv-x="1413" d="M-37 0l249 819q45 147 45 291q0 33 -2 61t-3.5 48t-3 32.5t-3 21.5t-2.5 18h292q7 -39 11 -91l4 -107h19q19 29 64 71t91 70.5t120.5 52t161 23.5t150.5 -33t96 -87q52 -85 52 -230q0 -96 -29 -230l-155 -730h-552l49 233h240l99 462q25 115 25 191q0 45 -11.5 82 t-29.5 56q-43 44 -122 44q-46 0 -94 -21.5t-83 -52.5q-73 -64 -107 -112l-14 -22l-259 -860h-298z" />
<glyph unicode="&#x5df;" horiz-adv-x="602" d="M-90 -492q256 1206 277 1303q40 183 40 328q0 86 -9 151h305q9 -65 9 -113t-0.5 -79.5t-9.5 -110.5t-27 -162l-280 -1317h-305z" />
<glyph unicode="&#x5e0;" horiz-adv-x="879" d="M-47 0l49 233h310q35 77 67 230l95 445q25 115 -25 147q-22 14 -59 14q-75 0 -155 -17l51 240q90 18 186.5 18t161 -20.5t99.5 -55.5q64 -64 64 -181q0 -59 -18 -145l-112 -525q-20 -94 -52.5 -189.5t-55.5 -144.5l-23 -49h-583z" />
<glyph unicode="&#x5e1;" horiz-adv-x="1268" d="M66 427q0 99 25 219t97 236t142 170l1 8l-134 -9l49 231q238 28 528 28q257 0 363 -174q64 -107 64 -267q0 -101 -26 -224q-66 -313 -248 -489t-434 -176t-360 176q-67 108 -67 271zM376 442q0 -219 167 -219q232 0 322 422q26 122 26 209q0 221 -167 221l-113 -2 q-153 -165 -210 -428q-25 -118 -25 -203z" />
<glyph unicode="&#x5e2;" horiz-adv-x="1297" d="M-73 -60l50 236l339 49l-56 1065h304l34 -582l-7 -409q91 51 155.5 144.5t108.5 241.5l181 604h302l-169 -560q-42 -149 -95 -243q-68 -125 -139 -196q-114 -115 -233 -176q-162 -82 -354 -114z" />
<glyph unicode="&#x5e3;" horiz-adv-x="1309" d="M108 730q0 56 18 141t68.5 166t115 131.5t144.5 83.5q142 60 309 60q190 0 298 -87q39 -32 70 -84q60 -98 60 -257q0 -109 -28 -238l-242 -1138h-311l242 1138q33 151 33 229q0 42 -11 82.5t-31 60.5q-46 49 -132 49q-63 0 -113 -18.5t-78 -42.5t-49 -56 q-29 -47 -35.5 -79t-6.5 -54.5t8.5 -52.5t33.5 -52q45 -42 89 -51l37 -7l-100 -228l-51 7q-132 18 -196 49q-142 70 -142 248z" />
<glyph unicode="&#x5e4;" horiz-adv-x="1269" d="M33 8l47 224q226 -18 463 -18q110 0 174 70q32 34 55 71t42 93q38 117 70 284q15 79 15 116t-1.5 58t-11 56.5t-28.5 55.5q-47 49 -133 49q-63 0 -113 -18.5t-78 -42.5t-48 -56q-30 -47 -36 -79t-6 -54.5t8 -52.5t32 -52q46 -42 90 -51l37 -7l-100 -228l-51 7 q-132 18 -196 49q-142 70 -142 248q0 56 18 141t68.5 166t114.5 131t144 83q143 59 309 59q188 0 298 -86q40 -32 72 -84q59 -98 59 -256q0 -109 -31 -254t-86 -265.5t-118.5 -193t-145.5 -116.5t-159.5 -59.5t-188.5 -15.5t-226 7t-166 14z" />
<glyph unicode="&#x5e5;" horiz-adv-x="1173" d="M61 -492l227 1069l-134 713h334l86 -629v-15q29 -3 52 -3q79 0 123 42t65 140l98 465h305l-98 -462q-44 -208 -183 -309q-50 -37 -125 -60.5t-167 -23.5q-42 0 -80 5l-198 -932h-305z" />
<glyph unicode="&#x5e6;" horiz-adv-x="1274" d="M-62 0l49 233h498l225 -14l1 4l-206 350l-303 717h342l237 -581q92 103 152 298l84 282h302l-72 -238q-54 -173 -101 -253q-25 -43 -61 -97q-70 -105 -195 -196l187 -329l-37 -176h-1102z" />
<glyph unicode="&#x5e7;" horiz-adv-x="1310" d="M-74 -493l268 1265h283l-268 -1265h-283zM254 1057l49 233h1089l-39 -184l-342 -589q-165 -285 -206 -483l-8 -34h-303l8 34q17 81 73 224t117 247l317 552h-755z" />
<glyph unicode="&#x5e8;" horiz-adv-x="1082" d="M137 1054l50 235q191 21 362.5 21t271.5 -32t139 -92q41 -66 41 -155.5t-24 -187.5l-179 -843h-306l179 844q8 38 8 70q0 161 -213 161q-127 0 -329 -21z" />
<glyph unicode="&#x5e9;" horiz-adv-x="1605" d="M74 0l165 1290h292l-83 -646q12 -1 30 -1q79 0 126 42t76 140l137 465h290l-135 -462q-115 -393 -494 -393q-20 0 -56 2l-27 -204h326q167 0 285 130t185 358l169 569h292l-167 -561q-54 -178 -109 -285q-230 -444 -718 -444h-584z" />
<glyph unicode="&#x5ea;" horiz-adv-x="1435" d="M-66 7l50 232q63 -18 101 -18t65.5 14t44.5 39q29 43 43 108l142 668l-148 -14l49 231q316 43 630.5 43t394.5 -124q41 -66 41 -155.5t-24 -187.5l-179 -843h-307l179 844q8 38 8 70q0 161 -212 161q-56 0 -122 -3l-147 -690q-19 -91 -50.5 -159t-84.5 -125 q-110 -118 -337 -118q-39 0 -73.5 7t-63.5 20z" />
<glyph unicode="&#x5f3;" horiz-adv-x="444" d="M84 789q88 205 195 501h285l8 -22q-106 -231 -262 -479h-226z" />
<glyph unicode="&#x5f4;" horiz-adv-x="911" d="M106 789q88 205 195 501h285l8 -22q-106 -231 -262 -479h-226zM553 789q58 135 195 501h284l8 -22q-106 -231 -262 -479h-225z" />
<glyph unicode="&#x2000;" horiz-adv-x="857" />
<glyph unicode="&#x2001;" horiz-adv-x="1714" />
<glyph unicode="&#x2002;" horiz-adv-x="857" />
<glyph unicode="&#x2003;" horiz-adv-x="1714" />
<glyph unicode="&#x2004;" horiz-adv-x="571" />
<glyph unicode="&#x2005;" horiz-adv-x="428" />
<glyph unicode="&#x2006;" horiz-adv-x="285" />
<glyph unicode="&#x2007;" horiz-adv-x="285" />
<glyph unicode="&#x2008;" horiz-adv-x="214" />
<glyph unicode="&#x2009;" horiz-adv-x="342" />
<glyph unicode="&#x200a;" horiz-adv-x="95" />
<glyph unicode="&#x2010;" horiz-adv-x="659" d="M41 424l53 250h524l-53 -250h-524z" />
<glyph unicode="&#x2011;" horiz-adv-x="659" d="M41 424l53 250h524l-53 -250h-524z" />
<glyph unicode="&#x2012;" horiz-adv-x="659" d="M41 424l53 250h524l-53 -250h-524z" />
<glyph unicode="&#x2013;" horiz-adv-x="983" d="M41 436l49 230h852l-49 -230h-852z" />
<glyph unicode="&#x2014;" horiz-adv-x="1966" d="M41 436l49 230h1835l-49 -230h-1835z" />
<glyph unicode="&#x2018;" horiz-adv-x="440" d="M115 983q106 231 262 479h225q-85 -199 -194 -501h-285z" />
<glyph unicode="&#x2019;" horiz-adv-x="440" d="M106 961q88 205 195 501h285l8 -22q-106 -231 -262 -479h-226z" />
<glyph unicode="&#x201a;" horiz-adv-x="569" d="M-102 -264q83 195 194 502h285l8 -23q-106 -231 -262 -479h-225z" />
<glyph unicode="&#x201c;" horiz-adv-x="887" d="M115 983q106 231 262 479h225q-85 -199 -194 -501h-285zM561 983q106 231 262 479h226q-97 -226 -195 -501h-285z" />
<glyph unicode="&#x201d;" horiz-adv-x="887" d="M106 961q88 205 195 501h285l8 -22q-106 -231 -262 -479h-226zM553 961q58 135 195 501h284l8 -22q-106 -231 -262 -479h-225z" />
<glyph unicode="&#x201e;" horiz-adv-x="1018" d="M-102 -264q83 195 194 502h285l8 -23q-106 -231 -262 -479h-225zM346 -264l49 119q19 45 146 383h284l9 -23q-104 -228 -263 -479h-225z" />
<glyph unicode="&#x2026;" horiz-adv-x="1706" d="M25 115q0 91 54 144.5t150 53.5q69 0 109.5 -38.5t40.5 -106.5q0 -87 -55.5 -141t-136 -54t-121.5 37.5t-41 104.5zM586 115q0 91 54 144.5t150 53.5q69 0 109.5 -38.5t40.5 -106.5q0 -87 -55 -141t-136 -54t-122 37.5t-41 104.5zM1147 115q0 91 54 144.5t150 53.5 q69 0 109.5 -38.5t40.5 -106.5q0 -87 -55.5 -141t-136 -54t-121.5 37.5t-41 104.5z" />
<glyph unicode="&#x202f;" horiz-adv-x="342" />
<glyph unicode="&#x2039;" horiz-adv-x="664" d="M72 551v18l401 463l191 -155l-279 -334l135 -350l-246 -103z" />
<glyph unicode="&#x203a;" horiz-adv-x="664" d="M0 227l279 334l-136 350l246 103l203 -461v-18l-402 -463z" />
<glyph unicode="&#x205f;" horiz-adv-x="428" />
<glyph unicode="&#x20ac;" d="M41 481l37 178h127q9 70 22 115h-125l39 176h135q87 253 250 393q163 142 375 142q98 0 177.5 -22.5t166.5 -80.5l-125 -223q-86 49 -130 63.5t-91 14.5q-96 0 -175 -74t-136 -213h348l-39 -176h-360q-13 -42 -25 -115h299l-37 -178h-280q0 -123 45.5 -183t146.5 -60 q133 0 283 63v-258q-126 -63 -330 -63q-446 0 -446 501h-152z" />
<glyph unicode="&#x2122;" horiz-adv-x="1534" d="M106 1313v149h564v-149h-199v-572h-168v572h-197zM715 741v721h248l159 -510l170 510h240v-721h-168v408l4 121h-6l-174 -529h-141l-166 529h-7l5 -111v-418h-164z" />
<glyph unicode="&#x25fc;" horiz-adv-x="1120" d="M0 0v1120h1120v-1120h-1120z" />
<glyph unicode="&#xfb01;" horiz-adv-x="1372" d="M-219 -225q62 -21 120.5 -21t103.5 41.5t63 128.5l204 965h-163l30 145l183 84l18 84q41 191 139 278t273 87q133 0 235 -49l-80 -224q-68 31 -128 31t-96 -39t-48 -106l-12 -62h219l-49 -229h-220l-215 -1010q-77 -371 -403 -371q-105 0 -174 25v242zM801 0l237 1118 h301l-237 -1118h-301zM1086 1380q0 86 47 131t127 45q157 0 157 -120q0 -83 -45 -131t-135 -48q-151 0 -151 123z" />
<glyph unicode="&#xfb02;" horiz-adv-x="1372" d="M-219 -225q62 -21 120.5 -21t103.5 41.5t63 128.5l204 965h-163l30 145l183 84l18 84q41 191 139 278t273 87q133 0 235 -49l-80 -224q-68 31 -128 31t-96 -39t-48 -106l-12 -62h219l-49 -229h-220l-215 -1010q-77 -371 -403 -371q-105 0 -174 25v242zM801 0l330 1556 h301l-330 -1556h-301z" />
<glyph unicode="&#xfb2a;" horiz-adv-x="1605" d="M74 0l165 1290h292l-83 -646q12 -1 30 -1q79 0 126 42t76 140l137 465h290l-135 -462q-115 -393 -494 -393q-20 0 -56 2l-27 -204h326q167 0 285 130t185 358l169 569h292l-167 -561q-54 -178 -109 -285q-230 -444 -718 -444h-584zM1565 1508q0 63 41 94q30 23 73.5 23 t61.5 -20.5t18 -38.5q0 -59 -41 -90q-31 -24 -75 -24t-61 19t-17 37z" />
<glyph unicode="&#xfb2b;" horiz-adv-x="1605" d="M74 0l165 1290h292l-83 -646q12 -1 30 -1q79 0 126 42t76 140l137 465h290l-135 -462q-115 -393 -494 -393q-20 0 -56 2l-27 -204h326q167 0 285 130t185 358l169 569h292l-167 -561q-54 -178 -109 -285q-230 -444 -718 -444h-584zM238 1508q0 63 41 94q30 23 73.5 23 t61.5 -20.5t18 -38.5q0 -59 -41 -90q-31 -24 -75 -24t-61 19t-17 37z" />
<glyph unicode="&#xfb2c;" horiz-adv-x="1605" d="M74 0l165 1290h292l-83 -646q12 -1 30 -1q79 0 126 42t76 140l137 465h290l-135 -462q-115 -393 -494 -393q-20 0 -56 2l-27 -204h326q167 0 285 130t185 358l169 569h292l-167 -561q-54 -178 -109 -285q-230 -444 -718 -444h-584zM762 391q0 63 41 94q30 23 73.5 23 t61.5 -20.5t18 -38.5q0 -59 -41 -91q-31 -23 -75 -23t-61 19t-17 37zM1565 1508q0 63 41 94q30 23 73.5 23t61.5 -20.5t18 -38.5q0 -59 -41 -90q-31 -24 -75 -24t-61 19t-17 37z" />
<glyph unicode="&#xfb2d;" horiz-adv-x="1605" d="M74 0l165 1290h292l-83 -646q12 -1 30 -1q79 0 126 42t76 140l137 465h290l-135 -462q-115 -393 -494 -393q-20 0 -56 2l-27 -204h326q167 0 285 130t185 358l169 569h292l-167 -561q-54 -178 -109 -285q-230 -444 -718 -444h-584zM238 1508q0 63 41 94q30 23 73.5 23 t61.5 -20.5t18 -38.5q0 -59 -41 -90q-31 -24 -75 -24t-61 19t-17 37zM762 391q0 63 41 94q30 23 73.5 23t61.5 -20.5t18 -38.5q0 -59 -41 -91q-31 -23 -75 -23t-61 19t-17 37z" />
<glyph unicode="&#xfb2e;" horiz-adv-x="1329" d="M-20 0l98 461q10 50 22.5 88.5t38.5 85.5t61 82.5t91.5 68t128.5 52.5l-191 452h346l166 -442l83 -197q48 20 75.5 62.5t41.5 111.5l100 465h304l-98 -462q-11 -50 -23.5 -88.5t-38 -85.5t-60 -82t-90.5 -67.5t-127 -52.5l192 -452h-347l-248 639q-51 -20 -79 -62.5 t-42 -112.5l-100 -464h-304zM280 -249l24 116h393l-24 -116h-393z" />
<glyph unicode="&#xfb2f;" horiz-adv-x="1329" d="M-20 0l98 461q10 50 22.5 88.5t38.5 85.5t61 82.5t91.5 68t128.5 52.5l-191 452h346l166 -442l83 -197q48 20 75.5 62.5t41.5 111.5l100 465h304l-98 -462q-11 -50 -23.5 -88.5t-38 -85.5t-60 -82t-90.5 -67.5t-127 -52.5l192 -452h-347l-248 639q-51 -20 -79 -62.5 t-42 -112.5l-100 -464h-304zM281 -270l25 117h382l-25 -117h-136l-43 -202h-111l43 202h-135z" />
<glyph unicode="&#xfb30;" horiz-adv-x="1329" d="M-20 0l98 461q10 50 22.5 88.5t38.5 85.5t61 82.5t91.5 68t128.5 52.5l-191 452h346l166 -442l83 -197q48 20 75.5 62.5t41.5 111.5l100 465h304l-98 -462q-11 -50 -23.5 -88.5t-38 -85.5t-60 -82t-90.5 -67.5t-127 -52.5l192 -452h-347l-248 639q-51 -20 -79 -62.5 t-42 -112.5l-100 -464h-304zM417 183q0 63 41 94q30 23 73.5 23t61.5 -20.5t18 -38.5q0 -59 -41 -91q-31 -23 -75 -23t-61 19t-17 37z" />
<glyph unicode="&#xfb31;" horiz-adv-x="1182" d="M-37 0l49 233h579l130 611q8 38 8 70q0 161 -213 161q-128 0 -280 -18l-50 -6l51 241q151 18 345 18t292.5 -34t137 -95.5t38.5 -141.5t-24 -196l-130 -610h148l-49 -233h-1032zM289 643q0 63 41 94q30 23 73.5 23t61.5 -20.5t18 -38.5q0 -59 -41 -91q-31 -23 -75 -23 t-61 19t-17 37z" />
<glyph unicode="&#xfb32;" horiz-adv-x="951" d="M-69 -9l82 283q2 -2 24 -5.5t45.5 -3.5t63 1.5t99.5 19.5q84 25 145 95t81 163l77 364q25 115 -25 147q-22 14 -61 14q-84 0 -154 -17l-24 -6l51 241q93 23 204 23t178 -21t101 -55q56 -55 56 -170q0 -58 -21 -156l-193 -908h-231l-5 188h-15q-6 -8 -17 -22.5t-49 -50 t-79 -63t-105 -50t-129 -22.5q-40 0 -99 11zM215 643q0 63 41 94q30 23 73.5 23t61.5 -20.5t18 -38.5q0 -59 -41 -91q-31 -23 -75 -23t-61 19t-17 37z" />
<glyph unicode="&#xfb33;" horiz-adv-x="1121" d="M131 1057l49 233h1031l-47 -221q-44 -16 -98 -47q-58 -37 -88 -88t-47 -133l-170 -801h-305l172 808q11 55 36.5 100t53.5 70q58 53 95 66l17 6l2 7h-701zM267 643q0 63 41 94q30 23 73.5 23t61.5 -20.5t18 -38.5q0 -59 -41 -91q-31 -23 -75 -23t-61 19t-17 37z" />
<glyph unicode="&#xfb34;" horiz-adv-x="1345" d="M21 0l175 823h306l-175 -823h-306zM241 1036l49 231q215 43 529.5 43t394.5 -124q41 -66 41 -155.5t-24 -187.5l-179 -843h-306l179 844q8 38 8 70q0 161 -213 161q-90 0 -210 -9.5t-194 -19.5zM580 643q0 63 41 94q30 23 73.5 23t61.5 -20.5t18 -38.5q0 -59 -41 -91 q-31 -23 -75 -23t-61 19t-17 37z" />
<glyph unicode="&#xfb35;" horiz-adv-x="625" d="M-58 643q0 63 41 94q30 23 73.5 23t61.5 -20.5t18 -38.5q0 -59 -41 -91q-31 -23 -75 -23t-61 19t-17 37zM24 0l274 1290h305l-274 -1290h-305z" />
<glyph unicode="&#xfb36;" horiz-adv-x="701" d="M-74 643q0 63 41 94q30 23 73.5 23t61.5 -20.5t18 -38.5q0 -59 -41 -91q-31 -23 -75 -23t-61 19t-17 37zM23 0l92 434q44 207 126 345q77 128 150 189q70 59 106 75l16 7l2 7h-314l49 233h542l-49 -233q-57 -38 -110.5 -103.5t-88 -127t-59 -139t-35 -119t-30.5 -134.5 l-92 -434h-305z" />
<glyph unicode="&#xfb38;" horiz-adv-x="1330" d="M129 439.5q0 89.5 24 205.5l137 643h307q-94 -443 -128 -602t-34 -244q0 -217 168 -217q120 0 200 99t127 321q36 170 36 267q0 84 -33 116q-24 24 -56 32t-87 8l-65 -5l48 225q77 22 165 22t153 -20q139 -44 173 -191q13 -57 13 -108q0 -154 -40 -346 q-68 -322 -248 -493.5t-448 -171.5q-150 0 -252.5 76.5t-141.5 224.5q-18 69 -18 158.5zM605 643q0 63 41 94q30 23 73.5 23t61.5 -20.5t18 -38.5q0 -59 -41 -91q-31 -23 -75 -23t-61 19t-17 37z" />
<glyph unicode="&#xfb39;" horiz-adv-x="592" d="M-19 830q0 63 41 94q30 23 73.5 23t61.5 -20.5t18 -38.5q0 -59 -41 -90q-31 -24 -75 -24t-61 19t-17 37zM106 436l182 854h305l-127 -596l-258 -258h-102z" />
<glyph unicode="&#xfb3a;" horiz-adv-x="1093" d="M139 1053l50 235q182 22 380 22q118 0 202.5 -34t130 -90t65.5 -130t20 -146q0 -86 -23 -191l-258 -1211h-306l264 1242q16 73 16 127.5t-17.5 100.5t-63.5 71.5t-119 25.5q-128 0 -341 -22zM233 643q0 63 41 94q30 23 73.5 23t61.5 -20.5t18 -38.5q0 -59 -41 -91 q-31 -23 -75 -23t-61 19t-17 37z" />
<glyph unicode="&#xfb3b;" horiz-adv-x="1055" d="M-69 8l50 238q158 -20 332 -20q147 0 223 92q68 81 98 222l44 210q15 70 15 125q0 200 -200 200q-127 0 -340 -22l50 235q182 22 379 22q118 0 202.5 -34t130.5 -90t66 -130t20 -146q0 -86 -23 -191l-32 -148q-83 -398 -338 -525q-132 -66 -308 -66q-229 0 -369 28z M257 643q0 63 41 94q30 23 73.5 23t61.5 -20.5t18 -38.5q0 -59 -41 -91q-31 -23 -75 -23t-61 19t-17 37z" />
<glyph unicode="&#xfb3c;" horiz-adv-x="1115" d="M161 1057l106 499h305l-56 -266h679l-42 -198l-306 -613l-209 -479h-297l209 479l288 578h-677zM222 643q0 63 41 94q30 23 73.5 23t61.5 -20.5t18 -38.5q0 -59 -41 -91q-31 -23 -75 -23t-61 19t-17 37z" />
<glyph unicode="&#xfb3e;" horiz-adv-x="1413" d="M-37 0l249 819q45 147 45 291q0 33 -2 61t-3.5 48t-3 32.5t-3 21.5t-2.5 18h292q7 -39 11 -91l4 -107h19q19 29 64 71t91 70.5t120.5 52t161 23.5t150.5 -33t96 -87q52 -85 52 -230q0 -96 -29 -230l-155 -730h-552l49 233h240l99 462q25 115 25 191q0 45 -11.5 82 t-29.5 56q-43 44 -122 44q-46 0 -94 -21.5t-83 -52.5q-73 -64 -107 -112l-14 -22l-259 -860h-298zM614 643q0 63 41 94q30 23 73.5 23t61.5 -20.5t18 -38.5q0 -59 -41 -91q-31 -23 -75 -23t-61 19t-17 37z" />
<glyph unicode="&#xfb40;" horiz-adv-x="879" d="M-47 0l49 233h310q35 77 67 230l95 445q25 115 -25 147q-22 14 -59 14q-75 0 -155 -17l51 240q90 18 186.5 18t161 -20.5t99.5 -55.5q64 -64 64 -181q0 -59 -18 -145l-112 -525q-20 -94 -52.5 -189.5t-55.5 -144.5l-23 -49h-583zM134 643q0 63 41 94q30 23 73.5 23 t61.5 -20.5t18 -38.5q0 -59 -41 -91q-31 -23 -75 -23t-61 19t-17 37z" />
<glyph unicode="&#xfb41;" horiz-adv-x="1268" d="M66 427q0 99 25 219t97 236t142 170l1 8l-134 -9l49 231q238 28 528 28q257 0 363 -174q64 -107 64 -267q0 -101 -26 -224q-66 -313 -248 -489t-434 -176t-360 176q-67 108 -67 271zM376 442q0 -219 167 -219q232 0 322 422q26 122 26 209q0 221 -167 221l-113 -2 q-153 -165 -210 -428q-25 -118 -25 -203zM542 643q0 63 41 94q30 23 73.5 23t61.5 -20.5t18 -38.5q0 -59 -41 -91q-31 -23 -75 -23t-61 19t-17 37z" />
<glyph unicode="&#xfb43;" horiz-adv-x="1309" d="M108 730q0 56 18 141t68.5 166t115 131.5t144.5 83.5q142 60 309 60q190 0 298 -87q39 -32 70 -84q60 -98 60 -257q0 -109 -28 -238l-242 -1138h-311l242 1138q33 151 33 229q0 42 -11 82.5t-31 60.5q-46 49 -132 49q-63 0 -113 -18.5t-78 -42.5t-49 -56 q-29 -47 -35.5 -79t-6.5 -54.5t8.5 -52.5t33.5 -52q45 -42 89 -51l37 -7l-100 -228l-51 7q-132 18 -196 49q-142 70 -142 248zM573 843q0 63 41 94q30 23 73.5 23t61.5 -20.5t18 -38.5q0 -59 -41 -91q-31 -23 -75 -23t-61 19t-17 37z" />
<glyph unicode="&#xfb44;" horiz-adv-x="1269" d="M33 8l47 224q226 -18 463 -18q110 0 174 70q32 34 55 71t42 93q38 117 70 284q15 79 15 116t-1.5 58t-11 56.5t-28.5 55.5q-47 49 -133 49q-63 0 -113 -18.5t-78 -42.5t-48 -56q-30 -47 -36 -79t-6 -54.5t8 -52.5t32 -52q46 -42 90 -51l37 -7l-100 -228l-51 7 q-132 18 -196 49q-142 70 -142 248q0 56 18 141t68.5 166t114.5 131t144 83q143 59 309 59q188 0 298 -86q40 -32 72 -84q59 -98 59 -256q0 -109 -31 -254t-86 -265.5t-118.5 -193t-145.5 -116.5t-159.5 -59.5t-188.5 -15.5t-226 7t-166 14zM587 846q0 63 41 94 q30 23 73.5 23t61.5 -20.5t18 -38.5q0 -59 -41 -90q-31 -24 -75 -24t-61 19t-17 37z" />
<glyph unicode="&#xfb46;" horiz-adv-x="1274" d="M-62 0l49 233h498l225 -14l1 4l-206 350l-303 717h342l237 -581q92 103 152 298l84 282h302l-72 -238q-54 -173 -101 -253q-25 -43 -61 -97q-70 -105 -195 -196l187 -329l-37 -176h-1102zM148 498q0 63 41 94q30 23 73.5 23t61.5 -20.5t18 -38.5q0 -59 -41 -90 q-31 -24 -75 -24t-61 19t-17 37z" />
<glyph unicode="&#xfb47;" horiz-adv-x="1310" d="M-74 -493l268 1265h283l-268 -1265h-283zM254 1057l49 233h1089l-39 -184l-342 -589q-165 -285 -206 -483l-8 -34h-303l8 34q17 81 73 224t117 247l317 552h-755zM531 643q0 63 41 94q30 23 73.5 23t61.5 -20.5t18 -38.5q0 -59 -41 -91q-31 -23 -75 -23t-61 19t-17 37z " />
<glyph unicode="&#xfb48;" horiz-adv-x="1082" d="M137 1054l50 235q191 21 362.5 21t271.5 -32t139 -92q41 -66 41 -155.5t-24 -187.5l-179 -843h-306l179 844q8 38 8 70q0 161 -213 161q-127 0 -329 -21zM240 643q0 63 41 94q30 23 73.5 23t61.5 -20.5t18 -38.5q0 -59 -41 -91q-31 -23 -75 -23t-61 19t-17 37z" />
<glyph unicode="&#xfb49;" horiz-adv-x="1605" d="M74 0l165 1290h292l-83 -646q12 -1 30 -1q79 0 126 42t76 140l137 465h290l-135 -462q-115 -393 -494 -393q-20 0 -56 2l-27 -204h326q167 0 285 130t185 358l169 569h292l-167 -561q-54 -178 -109 -285q-230 -444 -718 -444h-584zM762 391q0 63 41 94q30 23 73.5 23 t61.5 -20.5t18 -38.5q0 -59 -41 -91q-31 -23 -75 -23t-61 19t-17 37z" />
<glyph unicode="&#xfb4a;" horiz-adv-x="1435" d="M-66 7l50 232q63 -18 101 -18t65.5 14t44.5 39q29 43 43 108l142 668l-148 -14l49 231q316 43 630.5 43t394.5 -124q41 -66 41 -155.5t-24 -187.5l-179 -843h-307l179 844q8 38 8 70q0 161 -212 161q-56 0 -122 -3l-147 -690q-19 -91 -50.5 -159t-84.5 -125 q-110 -118 -337 -118q-39 0 -73.5 7t-63.5 20zM697 643q0 63 41 94q30 23 73.5 23t61.5 -20.5t18 -38.5q0 -59 -41 -91q-31 -23 -75 -23t-61 19t-17 37z" />
<glyph unicode="&#xfb4b;" horiz-adv-x="625" d="M23 0l274 1290h305l-274 -1290h-305zM341 1508q0 63 41 94q30 23 73.5 23t61.5 -20.5t18 -38.5q0 -59 -41 -90q-31 -24 -75 -24t-61 19t-17 37z" />
</font>
</defs>
</svg>
