<?xml version="1.0" standalone="no"?>
<!DOCTYPE svg PUBLIC "-//W3C//DTD SVG 1.1//EN" "http://www.w3.org/Graphics/SVG/1.1/DTD/svg11.dtd" >
<svg xmlns="http://www.w3.org/2000/svg">
<metadata></metadata>
<defs>
<font id="aharoni_clmboldoblique" horiz-adv-x="0" >
<font-face units-per-em="2048" ascent="1638" descent="-410" />
<missing-glyph horiz-adv-x="847" />
<glyph horiz-adv-x="2048" />
<glyph horiz-adv-x="2048" />
<glyph unicode="&#xd;" horiz-adv-x="2048" />
<glyph unicode=" "  horiz-adv-x="847" />
<glyph unicode="&#x09;" horiz-adv-x="847" />
<glyph unicode="&#xa0;" horiz-adv-x="847" />
<glyph unicode="!" horiz-adv-x="441" d="M101 147q11 59 61.5 101.5t111.5 42.5t95.5 -42.5t23.5 -101.5q-11 -61 -61.5 -104t-109.5 -43q-61 0 -96.5 43t-24.5 104zM158 451l126 676h291l-126 -676h-291z" />
<glyph unicode="&#x22;" horiz-adv-x="744" d="M194 693l80 434h275l-235 -434h-120zM571 693l81 434h274l-235 -434h-120z" />
<glyph unicode="#" horiz-adv-x="1052" d="M145 438l35 188h209l54 167h-178l34 188h205l131 408h171l-131 -408h157l132 408h167l-130 -408h170l-34 -188h-194l-52 -167h165l-36 -188h-191l-141 -438h-171l142 438h-157l-141 -438h-171l141 438h-186zM560 626h160l52 167h-158z" />
<glyph unicode="$" horiz-adv-x="1052" d="M188 389q0 41 9 79h252q-4 -34 -4 -40q0 -51 37.5 -86.5t90.5 -35.5q79 0 136.5 56.5t57.5 135.5q0 32 -11 51t-42 45q-24 18 -46.5 28.5t-133.5 55.5q-188 75 -188 258q0 176 118 306q41 49 86 74.5t115 41.5l45 250h239l-45 -250q70 -18 109 -65q67 -83 67 -186 q0 -35 -5 -72h-237q0 54 -25.5 85.5t-70.5 31.5q-58 0 -98.5 -43t-40.5 -104q0 -55 34 -86q23 -21 57.5 -37t164.5 -68q165 -65 165 -235q0 -95 -33 -188.5t-89 -157.5q-89 -102 -235 -147l-45 -248h-239l45 248q-113 31 -176.5 111t-63.5 192z" />
<glyph unicode="%" horiz-adv-x="1615" d="M233 1015q0 102 58 194.5t153 148t199 55.5q121 0 201 -78.5t80 -197.5q0 -77 -34.5 -151t-91 -129t-132.5 -88.5t-155 -33.5q-120 0 -199 79.5t-79 200.5zM419 0l830 1389h194l-832 -1389h-192zM436 1056q0 -55 32.5 -87.5t85.5 -32.5q64 0 115.5 50.5t51.5 112.5 q0 50 -33.5 82.5t-84.5 32.5q-62 0 -114.5 -49.5t-52.5 -108.5zM939 250q0 160 124 282t286 122q121 0 201.5 -78.5t80.5 -197.5q0 -104 -58 -197t-154 -149t-203 -56q-117 0 -197 79t-80 195zM1142 289q0 -48 33 -80t82 -32q66 0 118.5 51.5t52.5 115.5q0 45 -34.5 78 t-83.5 33q-66 0 -117 -50.5t-51 -115.5z" />
<glyph unicode="&#x26;" horiz-adv-x="1277" d="M133 336q0 78 28.5 158t78.5 141q75 95 239 179q-47 64 -62 101t-15 88q0 105 58.5 200t155.5 152.5t205 57.5q131 0 217 -75t86 -190q0 -133 -72 -237q-39 -57 -77.5 -89t-138.5 -91l102 -143l174 226h280l-317 -414l199 -265l-209 -159l-157 208q-110 -118 -195 -163 t-196 -45q-169 0 -276.5 100.5t-107.5 259.5zM385 372q0 -68 43.5 -108t116.5 -40q63 0 116.5 36t106.5 112l-172 233q-67 -30 -92 -45t-53 -43q-66 -69 -66 -145zM643 1037q0 -55 69 -133l15 7q38 15 79 45q40 29 56.5 61t16.5 80q0 34 -27.5 57.5t-67.5 23.5 q-56 0 -98.5 -42.5t-42.5 -98.5z" />
<glyph unicode="'" horiz-adv-x="366" d="M194 693l80 434h275l-235 -434h-120z" />
<glyph unicode="(" horiz-adv-x="642" d="M140.5 343q-8.5 106 13.5 221q51 278 306 563h297q-59 -66 -98 -114t-92.5 -124.5t-89 -158.5t-50.5 -166q-31 -164 6.5 -308t115.5 -256h-297q-47 67 -75 152t-36.5 191z" />
<glyph unicode=")" horiz-adv-x="588" d="M45 0q119 111 210.5 255.5t122.5 308.5q10 57 11 113.5t-9 109.5t-21.5 97t-32 92t-35.5 78.5t-37 72.5h297q151 -284 99 -563q-31 -167 -114 -314t-194 -250h-297z" />
<glyph unicode="*" horiz-adv-x="826" d="M331 1080l24 134l184 -43l-69 180l129 38l53 -175l113 144l101 -88l-129 -137l184 -23l-25 -131l-180 41l71 -171l-122 -50l-56 180l-113 -149l-109 79l132 151z" />
<glyph unicode="+" horiz-adv-x="1127" d="M188 586l41 222h352l62 336h233l-62 -336h360l-41 -222h-361l-64 -344h-233l64 344h-351z" />
<glyph unicode="," horiz-adv-x="343" d="M19 -79l64 342h274l-186 -342h-152z" />
<glyph unicode="-" horiz-adv-x="732" d="M128 432l49 263h657l-49 -263h-657z" />
<glyph unicode="." horiz-adv-x="392" d="M53 147q11 60 61.5 102t110.5 42q61 0 95.5 -42.5t23.5 -101.5q-11 -61 -61.5 -104t-109.5 -43q-61 0 -96 43t-24 104z" />
<glyph unicode="/" horiz-adv-x="783" d="M-43 0l718 1127h291l-718 -1127h-291z" />
<glyph unicode="0" horiz-adv-x="967" d="M161 337.5q-4 83.5 23 228.5q27 140 62 224t102 172q139 184 349 184q206 0 280 -184q36 -87 40 -169.5t-23 -226.5q-27 -142 -62 -226.5t-102 -172.5q-44 -55 -83.5 -92t-108.5 -67.5t-149 -30.5q-210 0 -288 190q-36 87 -40 170.5zM427.5 408q-1.5 -73 24 -122 t76.5 -49q52 0 95.5 50t70.5 121t43 158q13 84 15 156.5t-24 121t-78 48.5q-51 0 -94.5 -49t-70.5 -120t-43 -157q-13 -85 -14.5 -158z" />
<glyph unicode="1" horiz-adv-x="967" d="M357 566l53 283q96 50 157.5 110.5t125.5 167.5h231l-208 -1127h-291l122 658q-96 -57 -190 -92z" />
<glyph unicode="2" horiz-adv-x="967" d="M38 0q422 391 556 567q63 82 68 164.5t-48 121.5q-41 32 -92 40t-98.5 0t-113.5 -29l47 252q69 15 96.5 20t70 9.5t89.5 4.5q109 0 197.5 -46t133 -130.5t24.5 -188.5q-13 -75 -48 -150t-73.5 -129.5t-88 -108t-80 -81t-62.5 -53.5h365l-184 -263h-759z" />
<glyph unicode="3" horiz-adv-x="967" d="M107 38l117 248q28 -19 83.5 -34t113.5 -15q90 0 153 32t74 92q7 40 -14 68t-57 38.5t-78 15t-78 -1.5l36 184q56 -12 116 8q49 17 81.5 47.5t38.5 72.5q6 50 -36 73t-114 23q-90 0 -184 -36l47 250q90 45 214 45q50 0 102 -10t104 -34t90.5 -58t58.5 -87.5t10 -118.5 q-17 -111 -162 -226q52 -21 84.5 -73t34.5 -123.5t-40 -154.5q-66 -129 -187.5 -205t-287.5 -79q-201 -3 -320 59z" />
<glyph unicode="4" horiz-adv-x="967" d="M111 177l34 178l625 772h218l-137 -744h109l-152 -206l-32 -177h-237l32 177h-460zM393 383h218l64 352z" />
<glyph unicode="5" horiz-adv-x="967" d="M120 9l45 247q40 -18 101 -27.5t125 -3.5q53 5 97 21t82.5 56t49.5 98q9 47 -10 81.5t-56.5 52.5t-88.5 26.5t-103 7t-103 -9.5l258 569h541l-94 -225h-305l-65 -141q181 -26 250.5 -107.5t47.5 -249.5q-16 -117 -94.5 -214t-192 -151.5t-237.5 -61.5q-15 -1 -29.5 -1 h-25.5t-25.5 1t-22.5 2t-23.5 3.5t-21.5 3.5t-23.5 5t-23 5t-26.5 6t-27 7z" />
<glyph unicode="6" horiz-adv-x="967" d="M115 385q14 78 42.5 146.5t62 114.5t52 66.5t34.5 35.5l384 379h375q-60 -54 -168 -148.5t-171 -150.5t-59 -56q172 0 264 -114t63 -273q-31 -168 -182 -286t-333 -118q-119 0 -210 54t-132.5 147t-21.5 203zM389 393q-13 -64 26 -110t107 -46q67 0 124 45.5t70 110.5 q11 65 -28.5 110.5t-106.5 45.5q-68 0 -124.5 -46t-67.5 -110z" />
<glyph unicode="7" horiz-adv-x="967" d="M85 0l590 902h-386l153 225h652l-722 -1127h-287z" />
<glyph unicode="8" horiz-adv-x="967" d="M139 346q15 79 64.5 148t123.5 120q-79 90 -56 215q24 131 148 224t276 93t242 -93t66 -224q-23 -125 -137 -215q119 -108 88 -268q-27 -148 -165.5 -252.5t-307.5 -104.5t-269 104.5t-73 252.5zM393 365q-13 -64 24.5 -111t102.5 -47q66 0 120.5 46.5t67.5 111.5 q13 64 -24.5 110.5t-102.5 46.5q-66 0 -120.5 -46t-67.5 -111zM500 819q-10 -55 22.5 -93t88.5 -38t102.5 38t56.5 93t-22.5 93.5t-88.5 38.5t-102.5 -38.5t-56.5 -93.5z" />
<glyph unicode="9" horiz-adv-x="967" d="M109 0q54 48 167 147t174 153.5t57 54.5q-172 0 -264 114t-63 273q31 168 182 286t333 118q119 0 210.5 -54t133 -147t21.5 -203q-14 -78 -42.5 -146t-62.5 -114t-52 -66.5t-35 -35.5l-383 -380h-376zM458 735q-11 -65 29 -110.5t107 -45.5q68 0 124 46t67 110 q13 64 -26 110t-107 46q-67 0 -124 -45.5t-70 -110.5z" />
<glyph unicode=":" horiz-adv-x="422" d="M83 147q11 59 61.5 101.5t111.5 42.5t95 -42.5t23 -101.5q-11 -61 -61.5 -104t-109.5 -43q-61 0 -96 43t-24 104zM190 718q11 61 61.5 103.5t111.5 42.5t95 -42.5t23 -103.5q-11 -60 -62 -102.5t-111 -42.5t-94.5 42.5t-23.5 102.5z" />
<glyph unicode=";" horiz-adv-x="407" d="M45 -79l64 342h274l-186 -342h-152zM194 718q11 61 61 103.5t111 42.5t95.5 -42.5t23.5 -103.5q-11 -60 -62 -102.5t-111 -42.5t-94.5 42.5t-23.5 102.5z" />
<glyph unicode="&#x3c;" horiz-adv-x="1127" d="M184 485l34 184l1037 425l-41 -228l-697 -295l586 -299l-40 -210z" />
<glyph unicode="=" horiz-adv-x="1127" d="M152 395l42 221h946l-41 -221h-947zM220 763l41 222h947l-41 -222h-947z" />
<glyph unicode="&#x3e;" horiz-adv-x="1127" d="M105 62l42 225l697 295l-587 299l40 213l877 -425l-34 -184z" />
<glyph unicode="?" horiz-adv-x="905" d="M192 838q44 152 187 260t307 108q168 0 263.5 -116.5t66.5 -283.5q-22 -121 -119 -229.5t-217 -146.5l-17 -96h-291l58 320q36 -17 58 -22.5t57 -5.5q71 0 130.5 45t70.5 107q12 70 -20.5 116.5t-107.5 46.5q-70 0 -126 -46.5t-69 -118.5zM336 147q11 59 61.5 101.5 t111.5 42.5t95.5 -42.5t23.5 -101.5q-11 -61 -61.5 -104t-111.5 -43q-60 0 -95 43.5t-24 103.5z" />
<glyph unicode="@" horiz-adv-x="1390" d="M120 552q0 175 71 339t189.5 284t280 192t335.5 72q147 0 272 -53.5t198 -149.5q95 -122 95 -328q0 -336 -206 -508q-63 -52 -141 -81.5t-152 -29.5q-156 0 -170 102q-87 -102 -234 -102q-115 0 -182.5 70t-67.5 190q0 141 64 264.5t173 197t234 73.5q75 0 121.5 -25.5 t77.5 -83.5l32 102h183l-168 -555q-7 -28 -7 -47q0 -30 45 -30q84 0 167 115q48 64 76 154t28 180q0 186 -123.5 297t-329.5 111q-147 0 -282 -58t-234 -155.5t-158 -232t-59 -279.5q0 -111 50 -211t136 -159q63 -42 154 -68t182 -26q159 0 305 88l65 -113 q-106 -64 -190.5 -88t-201.5 -24q-275 0 -438 144q-89 79 -139.5 194t-50.5 238zM641 616q0 -61 32 -94t90 -33q90 0 159.5 79t69.5 180q0 60 -29.5 93t-83.5 33q-94 0 -166 -78t-72 -180z" />
<glyph unicode="A" horiz-adv-x="1390" d="M13 0l836 1389h203l325 -1389h-283l-83 359h-494l-220 -359h-284zM658 607h296l-71 419z" />
<glyph unicode="B" horiz-adv-x="1089" d="M128 0l257 1389h288q159 0 232 -13.5t127 -52.5q108 -81 108 -233q0 -131 -75 -233q-26 -34 -54 -56t-77 -44q98 -42 139 -101.5t41 -159.5q0 -99 -42.5 -193.5t-118.5 -161.5q-157 -141 -455 -141h-370zM430 248h128q99 0 152 16.5t90 58.5q51 57 51 130q0 78 -55 113 t-178 35h-122zM543 853h83q156 0 208 58q18 21 30.5 56.5t12.5 64.5q0 108 -176 108h-105z" />
<glyph unicode="C" horiz-adv-x="1465" d="M173 569q0 160 72.5 315.5t190 271t275 186.5t319.5 71q127 0 239 -41.5t195 -118.5q57 -53 89.5 -111t58.5 -152h-289q-42 71 -81 102q-44 34 -110.5 53.5t-139.5 19.5q-132 0 -247.5 -61t-199.5 -174q-52 -70 -80.5 -153.5t-28.5 -162.5q0 -170 108.5 -280t276.5 -110 q101 0 185.5 36.5t190.5 126.5h302q-112 -187 -308 -299t-411 -112q-293 0 -459 189q-69 77 -108.5 185.5t-39.5 218.5z" />
<glyph unicode="D" horiz-adv-x="1315" d="M128 0l257 1389h318q321 0 469 -100q99 -66 153 -181t54 -259q0 -208 -98 -403.5t-257 -306.5q-107 -75 -239.5 -107t-333.5 -32h-323zM430 246h57q173 0 281.5 35t187.5 117q160 166 160 393q0 101 -38 177t-110 118q-53 31 -125.5 43.5t-194.5 12.5h-51z" />
<glyph unicode="E" horiz-adv-x="977" d="M128 0l257 1389h746l-45 -249h-489l-62 -323h468l-45 -248h-468l-60 -321h489l-45 -248h-746z" />
<glyph unicode="F" horiz-adv-x="901" d="M128 0l257 1389h707l-45 -249h-450l-62 -323h429l-45 -248h-429l-105 -569h-257z" />
<glyph unicode="G" horiz-adv-x="1578" d="M171 564q0 163 73.5 319.5t193 272.5t281.5 186.5t331 70.5q139 0 261 -48.5t207 -137.5q110 -116 132 -246h-303q-30 50 -54.5 75.5t-63.5 48.5q-102 60 -220 60q-141 0 -259.5 -58.5t-198.5 -168.5q-55 -75 -86 -162.5t-31 -166.5q0 -75 29.5 -150t79.5 -126 q109 -109 299 -109q135 0 255 65t196 179h-575l45 240h905q-23 -226 -206 -432q-128 -146 -296.5 -223t-357.5 -77q-280 0 -458.5 165t-178.5 423z" />
<glyph unicode="H" horiz-adv-x="1277" d="M128 0l257 1389h258l-104 -559h496l104 559h257l-257 -1389h-258l107 582h-496l-107 -582h-257z" />
<glyph unicode="I" horiz-adv-x="526" d="M128 0l257 1389h258l-258 -1389h-257z" />
<glyph unicode="J" horiz-adv-x="901" d="M71 263q0 14 4 66h258l1 -13q13 -92 104 -92q64 0 102.5 44.5t55.5 137.5l182 983h257l-184 -991q-35 -185 -131 -282q-134 -140 -322 -140q-144 0 -235.5 80t-91.5 207z" />
<glyph unicode="K" horiz-adv-x="1164" d="M128 0l257 1389h258l-111 -600l543 600h308l-646 -683l388 -706h-308l-319 611l-113 -611h-257z" />
<glyph unicode="L" horiz-adv-x="826" d="M128 0l257 1389h258l-213 -1141h427l-45 -248h-684z" />
<glyph unicode="M" horiz-adv-x="1691" d="M128 0l257 1389h353l179 -1053l565 1053h354l-258 -1389h-257l193 1041l-556 -1041h-210l-169 1041l-194 -1041h-257z" />
<glyph unicode="N" horiz-adv-x="1390" d="M128 0l257 1389h293l387 -1011l188 1011h258l-258 -1389h-287l-393 1009l-188 -1009h-257z" />
<glyph unicode="O" horiz-adv-x="1578" d="M171 564q0 143 60.5 291t166.5 263q131 142 300 218.5t352 76.5q171 0 306.5 -75t211.5 -209t76 -304q0 -164 -71.5 -320.5t-188.5 -272t-276 -186t-326 -70.5q-266 0 -438.5 166t-172.5 422zM434 607q0 -168 110.5 -275.5t282.5 -107.5q129 0 242.5 58t193.5 165 q55 74 86.5 164.5t31.5 175.5q0 165 -107.5 271.5t-273.5 106.5q-131 0 -245 -57.5t-197 -166.5q-58 -75 -91 -164t-33 -170z" />
<glyph unicode="P" horiz-adv-x="1052" d="M128 0l257 1389h344q136 0 214.5 -14.5t127.5 -49.5q130 -89 130 -269q0 -107 -45.5 -215t-120.5 -180q-105 -101 -270 -126q-50 -7 -199 -7h-83l-98 -528h-257zM528 774h75q104 0 182 19q68 18 110.5 73.5t42.5 127.5q0 94 -76 128q-44 18 -178 18h-87z" />
<glyph unicode="Q" horiz-adv-x="1578" d="M171 562q0 133 46.5 261.5t130.5 233.5t193.5 186t242.5 125.5t270 44.5q275 0 445.5 -159.5t170.5 -417.5q0 -178 -67.5 -330.5t-195.5 -263.5q63 -41 130 -41q20 0 56 6l-43 -233q-19 -2 -45 -2q-45 0 -99 11t-89 28q-29 13 -109 74q-199 -109 -409 -109 q-178 0 -322 76t-225 210t-81 300zM432 628q90 24 231 24q106 0 201.5 -30t204.5 -98q82 -52 160 -141q83 68 130.5 174.5t47.5 227.5q0 169 -110.5 274.5t-289.5 105.5q-145 0 -277 -73.5t-211 -197.5q-40 -63 -60 -123.5t-27 -142.5zM473 427q117 -203 369 -203 q88 0 180 35q-46 46 -90 76t-111 61q-98 46 -210 46q-56 0 -138 -15z" />
<glyph unicode="R" horiz-adv-x="1089" d="M128 0l257 1389h400q140 0 222 -24t135 -82q92 -95 92 -244q0 -103 -37 -198t-105 -166q-58 -61 -129.5 -98.5t-175.5 -63.5l280 -513h-317l-267 532l-98 -532h-257zM520 725h126q105 0 163.5 19t98.5 66q28 32 45.5 79t17.5 90q0 42 -17 77t-46 53q-53 31 -196 31h-115z " />
<glyph unicode="S" horiz-adv-x="977" d="M92 321q0 15 4 75h269q-2 -15 -2 -39q0 -62 42 -97.5t117 -35.5q93 0 159.5 59.5t66.5 143.5q0 68 -42 107q-29 24 -61.5 40t-159.5 67q-117 46 -172.5 121.5t-55.5 188.5q0 119 67 226t178 171.5t235 64.5q151 0 251 -87.5t100 -218.5q0 -41 -8 -89h-265q0 65 -13 92 q-13 25 -43 40t-68 15q-71 0 -121 -50.5t-50 -120.5q0 -25 15.5 -51.5t41.5 -44.5q19 -13 42 -23.5t101 -38.5q155 -58 223 -137t68 -201q0 -133 -74.5 -254.5t-197.5 -194.5t-258 -73q-81 0 -158.5 26t-125.5 69t-76.5 112t-28.5 138z" />
<glyph unicode="T" horiz-adv-x="789" d="M224 1140l45 249h774l-45 -249h-261l-213 -1140h-257l212 1140h-255z" />
<glyph unicode="U" horiz-adv-x="1202" d="M205 331q0 79 19 178l161 880h258l-162 -880q-17 -93 -17 -131q0 -64 51 -109t122 -45q56 0 108 25t87 69q49 62 72 191l161 880h258l-162 -880q-41 -229 -160 -355q-77 -82 -187.5 -130t-221.5 -48q-168 0 -277.5 100.5t-109.5 254.5z" />
<glyph unicode="V" horiz-adv-x="1315" d="M272 1389h271l178 -1056l570 1056h270l-794 -1389h-211z" />
<glyph unicode="W" horiz-adv-x="1691" d="M271 1389h263l63 -970l418 970h187l53 -970l427 970h263l-664 -1389h-204l-53 919l-400 -919h-203z" />
<glyph unicode="X" horiz-adv-x="1277" d="M9 0l605 691l-347 698h306l233 -485l423 485h299l-611 -698l353 -691h-299l-244 479l-411 -479h-307z" />
<glyph unicode="Y" horiz-adv-x="1164" d="M263 1389h278l188 -639l427 639h278l-619 -876l-95 -513h-258l96 513z" />
<glyph unicode="Z" horiz-adv-x="939" d="M34 0l39 220l699 920h-498l45 249h805l-44 -233l-691 -908h558l-45 -248h-868z" />
<glyph unicode="[" horiz-adv-x="601" d="M188 137q0 96 21 214l90 487q38 217 168.5 358.5t338.5 192.5l-51 -277q-94 -37 -139.5 -106.5t-72.5 -218.5l-90 -479q-10 -57 -10 -105q0 -75 23.5 -115t85.5 -69l-50 -276q-77 18 -124.5 45t-93.5 80q-96 112 -96 269z" />
<glyph unicode="\" horiz-adv-x="1202" d="M415 1389h181l349 -1389h-180z" />
<glyph unicode="]" horiz-adv-x="601" d="M24 -257l51 276q98 32 144.5 101t75.5 224l90 479q10 57 10 105q0 77 -24.5 116t-92.5 68l51 277q82 -16 131 -43t96 -83q94 -110 94 -269q0 -96 -21 -214l-90 -487q-40 -221 -172 -362.5t-343 -187.5z" />
<glyph unicode="^" horiz-adv-x="1127" d="M244 712l461 697h227l214 -736l-216 -62l-156 507l-346 -509z" />
<glyph unicode="_" horiz-adv-x="939" d="M-49 -259l30 169h942l-31 -169h-941z" />
<glyph unicode="`" horiz-adv-x="789" d="M396 1392l132 171l381 -244l-125 -160z" />
<glyph unicode="a" horiz-adv-x="1240" d="M141 400q0 134 52 257t139 212t207 142.5t250 53.5q218 0 306 -163l25 139h229l-192 -1041h-229l25 135q-87 -83 -176.5 -121t-199.5 -38q-197 0 -316.5 116t-119.5 308zM398 451q0 -112 69 -179t185 -67q193 0 301 154q69 106 69 229q0 114 -68 181t-184 67 q-149 0 -260.5 -115t-111.5 -270z" />
<glyph unicode="b" horiz-adv-x="1240" d="M101 0l258 1389h250l-83 -444q68 55 102 73q107 60 255 60q185 0 304 -122t119 -312q0 -109 -38.5 -221t-106.5 -201q-93 -120 -213 -183t-255 -63q-145 0 -231 54q-45 26 -107 103l-24 -133h-230zM427 453q0 -110 70.5 -179t182.5 -69q151 0 259.5 113.5t108.5 271.5 q0 119 -67.5 189t-181.5 70q-154 0 -263 -116t-109 -280z" />
<glyph unicode="c" horiz-adv-x="1202" d="M145 419q0 167 91.5 316.5t243.5 239.5t322 90q106 0 199.5 -38.5t157.5 -107.5q42 -45 64 -94t36 -132h-282q-21 69 -75.5 106t-136.5 37q-148 0 -255.5 -111t-107.5 -265q0 -115 67.5 -185t178.5 -70q76 0 145.5 36.5t117.5 100.5h282q-100 -176 -251.5 -271 t-332.5 -95q-200 0 -332 126t-132 317z" />
<glyph unicode="d" horiz-adv-x="1240" d="M143 413q0 130 52.5 252.5t139.5 213t205 145t242 54.5q96 0 175 -34t121 -95l81 440h250l-257 -1389h-229l26 135q-169 -159 -374 -159q-194 0 -313 120t-119 317zM400 466q0 -116 72 -188.5t187 -72.5q94 0 179 54t136.5 143t51.5 188q0 117 -68.5 188t-181.5 71 q-152 0 -264 -114t-112 -269z" />
<glyph unicode="e" horiz-adv-x="1202" d="M143 419q0 167 92 316.5t245 239.5t324 90q196 0 320.5 -118t124.5 -304q0 -144 -37 -233h-806q0 -90 68.5 -147.5t175.5 -57.5q151 0 254 103h272q-85 -155 -235 -243.5t-327 -88.5q-208 0 -339.5 123.5t-131.5 319.5zM440 631h576q-12 205 -251 205 q-109 0 -198.5 -56.5t-126.5 -148.5z" />
<glyph unicode="f" horiz-adv-x="526" d="M107 0l150 814h-90l40 208h90q24 91 52.5 146t75.5 102q119 119 278 119q32 0 73 -4l-45 -237h-13h-21q-69 0 -105.5 -30.5t-44.5 -95.5h146l-39 -208h-147l-150 -814h-250z" />
<glyph unicode="g" horiz-adv-x="1240" d="M56 -85h284q42 -59 98 -84.5t144 -25.5q182 0 279 142q44 63 75 190q-90 -87 -175 -124t-195 -37q-193 0 -308 117.5t-115 314.5q0 175 85.5 327t230.5 241t313 89q109 0 181 -36.5t125 -119.5l25 132h239l-156 -844q-51 -282 -186 -422q-184 -190 -470 -190 q-384 0 -474 330zM400 438q0 -109 64.5 -171t176.5 -62q87 0 161 37.5t122 105.5q35 51 57 118t22 126q0 110 -67.5 177t-178.5 67q-155 0 -256 -112.5t-101 -285.5z" />
<glyph unicode="h" horiz-adv-x="1127" d="M101 0l258 1389h250l-77 -419q116 97 280 97q155 0 247.5 -81.5t92.5 -218.5q0 -80 -19 -179l-109 -588h-250l98 532q17 93 17 152q0 73 -43.5 113.5t-120.5 40.5q-126 0 -203 -100q-46 -65 -73 -210l-98 -528h-250z" />
<glyph unicode="i" horiz-adv-x="450" d="M101 0l194 1041h250l-194 -1041h-250zM316 1154l43 235h250l-43 -235h-250z" />
<glyph unicode="j" horiz-adv-x="488" d="M-32 -348l45 243q71 13 95 44.5t42 135.5l179 966h250l-181 -971q-32 -194 -145 -303.5t-285 -114.5zM349 1154l44 235h250l-44 -235h-250z" />
<glyph unicode="k" horiz-adv-x="1089" d="M101 0l258 1389h250l-156 -838l423 490h298l-466 -509l335 -532h-337l-264 487l-91 -487h-250z" />
<glyph unicode="l" horiz-adv-x="450" d="M101 0l258 1389h250l-258 -1389h-250z" />
<glyph unicode="m" horiz-adv-x="1766" d="M101 0l194 1041h229l-19 -98q65 65 134 93.5t163 28.5q115 0 192 -52q29 -20 46 -43t35 -66q145 161 366 161q165 0 256.5 -82t91.5 -228q0 -64 -15 -154l-111 -601h-250l105 571q13 68 13 126q0 61 -43.5 100t-112.5 39q-124 0 -197 -99q-25 -34 -41.5 -82t-33.5 -142 l-96 -513h-250l105 571q14 75 14 104q0 62 -19 93q-41 68 -147 68q-128 0 -197 -107q-39 -67 -66 -216l-96 -513h-250z" />
<glyph unicode="n" horiz-adv-x="1127" d="M101 0l194 1041h231l-19 -100q86 69 155 96.5t155 27.5q161 0 248 -79.5t87 -228.5q0 -72 -23 -199l-103 -558h-250l94 509q17 96 17 173q0 76 -40.5 115t-117.5 39q-118 0 -199 -96q-56 -70 -88 -250l-91 -490h-250z" />
<glyph unicode="o" horiz-adv-x="1202" d="M143 415q0 126 55 246t145.5 208.5t213.5 142t253 53.5q200 0 329 -127.5t129 -323.5q0 -123 -55.5 -241t-147 -204.5t-215 -139.5t-253.5 -53q-193 0 -323.5 126t-130.5 313zM400 458q0 -110 70.5 -181.5t177.5 -71.5q92 0 176.5 53t135.5 140.5t51 182.5 q0 110 -69 182.5t-175 72.5q-144 0 -255.5 -115t-111.5 -263z" />
<glyph unicode="p" horiz-adv-x="1240" d="M38 -348l257 1389h229l-22 -122q66 69 163.5 107.5t202.5 38.5q227 0 348 -156q82 -109 82 -263q0 -136 -50 -259.5t-134.5 -213.5t-201.5 -143.5t-245 -53.5q-96 0 -167.5 29t-129.5 93l-83 -446h-249zM427 453q0 -107 72 -177.5t183 -70.5q79 0 155 41t127 111 q33 49 55 112t22 112q0 41 -16 91.5t-40 80.5q-28 37 -81.5 60t-108.5 23q-148 0 -258 -114.5t-110 -268.5z" />
<glyph unicode="q" horiz-adv-x="1240" d="M145 419q0 167 88.5 316.5t236 239.5t312.5 90q124 0 221 -62q32 -22 49 -40.5t34 -54.5l26 133h230l-258 -1389h-250l83 448q-68 -59 -157 -91.5t-185 -32.5q-192 0 -311 123t-119 320zM402 457q0 -116 67 -184t181 -68q145 0 255 112t110 260q0 117 -67.5 188 t-177.5 71q-150 0 -259 -112t-109 -267z" />
<glyph unicode="r" horiz-adv-x="601" d="M101 0l194 1041h229l-19 -102q61 73 119 101q53 25 132 25h18l-45 -240q-110 -1 -182.5 -67t-88.5 -179l-107 -579h-250z" />
<glyph unicode="s" horiz-adv-x="826" d="M92 257q0 18 4 74h252q3 -126 116 -126q54 0 93.5 35.5t39.5 84.5q0 37 -29.5 59.5t-124.5 55.5q-136 48 -186 102t-50 153q0 98 56 183.5t151.5 136t205.5 50.5q116 0 201 -71.5t85 -168.5q0 -30 -6 -72h-244q-3 83 -83 83q-43 0 -76 -31t-33 -72q0 -34 38 -55 q24 -14 116 -43q134 -44 185.5 -96.5t51.5 -145.5q0 -108 -61.5 -204.5t-165 -154.5t-218.5 -58q-141 0 -229.5 78t-88.5 203z" />
<glyph unicode="t" horiz-adv-x="563" d="M139 0l150 814h-122l43 227h123l63 348h250l-64 -348h151l-43 -227h-151l-150 -814h-250z" />
<glyph unicode="u" horiz-adv-x="1127" d="M165 286q0 73 23 197l103 558h250l-94 -509q-19 -96 -19 -181q0 -69 41 -107.5t113 -38.5q137 0 213 96q51 60 86 250l90 490h250l-193 -1041h-231l18 100q-81 -67 -156 -95.5t-170 -28.5q-153 0 -235 82q-39 40 -64 104t-25 124z" />
<glyph unicode="v" horiz-adv-x="1052" d="M195 1041h278l113 -690l365 690h282l-613 -1041h-199z" />
<glyph unicode="w" horiz-adv-x="1503" d="M212 1041h269l68 -635l293 635h199l53 -635l308 635h266l-569 -1041h-156l-71 675l-327 -675h-154z" />
<glyph unicode="x" horiz-adv-x="1052" d="M2 0l470 537l-226 504h282l130 -314l242 314h282l-412 -504l271 -537h-301l-152 357l-285 -357h-301z" />
<glyph unicode="y" horiz-adv-x="1089" d="M137 -348l274 446l-206 943h285l106 -675l377 675h288l-855 -1389h-269z" />
<glyph unicode="z" horiz-adv-x="864" d="M38 0l41 222l573 597h-408l42 222h706l-41 -222l-571 -597h494l-42 -222h-794z" />
<glyph unicode="{" horiz-adv-x="638" d="M177 498l28 152q86 19 125.5 60.5t52.5 123.5l55 295q25 138 103 199.5t226 61.5q45 0 58 -1l-28 -151q-57 -7 -81 -15.5t-47 -29.5q-16 -16 -25 -45l-24 -101l-43 -232q-16 -100 -66 -160t-130 -76q-5 0 -18 -6q72 -16 102.5 -51t30.5 -103q0 -56 -7 -86l-44 -232 q-11 -60 -13 -78l-5 -34l5 -28q6 -41 119 -51l-29 -150q-26 -2 -60 -2q-124 0 -181 42.5t-57 135.5q0 44 9 83l54 295q8 35 8 64q0 95 -118 120z" />
<glyph unicode="|" horiz-adv-x="1127" d="M457 0l257 1389h224l-258 -1389h-223z" />
<glyph unicode="}" horiz-adv-x="638" d="M26 -240l28 150l14 2q54 7 81.5 19t45.5 37q10 17 17 55q3 12 9.5 39t9.5 39l43 232q21 108 67 163t131 73q4 0 17 6q-73 18 -103.5 54.5t-30.5 105.5q0 45 8 80l43 232l9 47q10 43 10 58q0 42 -23.5 58.5t-100.5 27.5l28 151q14 1 62 1q122 0 179.5 -43t57.5 -135 q0 -40 -10 -83l-54 -295q-6 -31 -6 -62q0 -50 31 -82t87 -40l-28 -152q-79 -13 -122.5 -57.5t-57.5 -126.5l-55 -295q-14 -81 -42 -131.5t-74 -79.5q-75 -50 -211 -50q-34 0 -60 2z" />
<glyph unicode="~" horiz-adv-x="1127" d="M197 543q68 88 115 135q96 96 208 96q74 0 136 -30l118 -51q68 -30 84.5 -35.5t39.5 -5.5q67 0 171 139l94 -139q-94 -120 -165 -170t-145 -50q-62 0 -165 45l-94 42q-53 25 -72 31t-41 6q-49 0 -96 -41q-13 -11 -79 -94l-17 -19z" />
<glyph unicode="&#x5b0;" d="M-170 -441q7 39 39 66.5t71 28.5l1 -1q38 0 61 -27t16 -67q-7 -38 -39 -65.5t-72 -27.5q-39 0 -61.5 27t-15.5 66zM-129 -208q6 39 38 66.5t71 27.5q40 0 63 -27t16 -67q-7 -39 -39.5 -66.5t-71.5 -27.5q-40 0 -62 27t-15 67z" />
<glyph unicode="&#x5b1;" d="M-408 -207q7 39 39.5 66.5t71.5 27.5q40 0 62.5 -27t16.5 -67q-7 -39 -39.5 -66.5t-71.5 -27.5q-40 0 -62.5 27t-16.5 67zM-316 -440q7 39 39.5 66.5t71.5 27.5q40 0 62 -27t15 -67q-6 -38 -38.5 -66t-70.5 -28q-40 0 -63 28t-16 66zM-141 -207q7 40 39 67t72 27 q38 0 61 -27t16 -67t-39 -67t-72 -27t-62 27t-15 67zM105 -440q7 40 39 67t72 27q38 0 61 -27t16 -67q-7 -39 -39.5 -66.5t-71.5 -27.5t-61.5 27.5t-15.5 66.5zM147 -207q6 39 38 66.5t71 27.5q40 0 62.5 -27t15.5 -67q-7 -39 -39 -66.5t-71 -27.5q-40 0 -62 27t-15 67z" />
<glyph unicode="&#x5b2;" d="M-415 -267l28 154h441l-26 -154h-443zM101 -440q7 39 39.5 66.5t71.5 27.5q40 0 62 -27t15 -67q-6 -38 -38.5 -66t-70.5 -28q-40 0 -63 28t-16 66zM143 -207q7 40 39 67t72 27t62 -27t15 -67t-39 -67t-72 -27q-38 0 -61 27t-16 67z" />
<glyph unicode="&#x5b3;" d="M-415 -267l28 154h441l-26 -154h-144l-40 -222h-154l39 222h-144zM101 -438q7 38 40 66t71 28q39 0 61.5 -27.5t15.5 -66.5q-6 -40 -38.5 -68t-70.5 -28q-40 0 -63 28t-16 68zM143 -207q7 40 39 67t72 27t62 -27t15 -67t-39 -67t-72 -27q-38 0 -61 27t-16 67z" />
<glyph unicode="&#x5b4;" d="M-130 -207q6 40 38 67t71 27q40 0 62.5 -27t15.5 -67q-7 -39 -39 -66.5t-71 -27.5q-40 0 -62 27t-15 67z" />
<glyph unicode="&#x5b5;" d="M-269 -207q7 40 39 67t72 27t62 -27t15 -67t-39 -67t-72 -27q-38 0 -61 27t-16 67zM8 -207q7 39 39 66.5t71 27.5t61.5 -27.5t15.5 -66.5q-7 -40 -38.5 -67t-71.5 -27q-38 0 -61 27t-16 67z" />
<glyph unicode="&#x5b6;" d="M-263 -207q7 40 39 67t72 27q38 0 61 -27t16 -67t-39 -67t-72 -27q-38 0 -61 27t-16 67zM-171 -440q7 40 39 67t72 27q38 0 61 -27t16 -67q-7 -39 -39.5 -66.5t-71.5 -27.5t-61.5 27.5t-15.5 66.5zM2 -207q7 40 39 67t72 27t62 -27t15 -67t-39 -67t-72 -27q-38 0 -61 27 t-16 67z" />
<glyph unicode="&#x5b7;" d="M-269 -267l29 154h441l-26 -154h-444z" />
<glyph unicode="&#x5b8;" d="M-269 -267l29 154h441l-26 -154h-145l-30 -176h-156l32 176h-145z" />
<glyph unicode="&#x5b9;" d="M141 1334q7 40 39 67t72 27t62 -27t15 -67t-39 -67t-72 -27q-38 0 -61 27t-16 67z" />
<glyph unicode="&#x5bb;" d="M-363 -207q7 40 39 67t72 27t62 -27t15 -67t-39 -67t-72 -27q-38 0 -61 27t-16 67zM-150 -318q7 40 39 67t72 27t62 -27t15 -67q-7 -38 -39 -65.5t-72 -27.5q-38 0 -61 27.5t-16 65.5zM62 -428q7 39 39.5 66.5t71.5 27.5q40 0 62 -27t15 -67q-6 -38 -38.5 -66t-70.5 -28 q-40 0 -63 28t-16 66z" />
<glyph unicode="&#x5bc;" d="M6 564q7 40 39 67t71 27h1q38 0 61 -27t16 -67t-39 -67t-72 -27t-62 27t-15 67z" />
<glyph unicode="&#x5bd;" d="M-171 -526l73 413h156l-73 -413h-156z" />
<glyph unicode="&#x5be;" horiz-adv-x="764" d="M222 864l49 263h657l-49 -263h-657z" />
<glyph unicode="&#x5bf;" d="M-2 1240l26 154h444l-28 -154h-442z" />
<glyph unicode="&#x5c0;" horiz-adv-x="366" d="M54 -113l239 1353h218l-240 -1353h-217z" />
<glyph unicode="&#x5c1;" d="M1413 1278q7 39 39.5 66.5t71.5 27.5v-1q39 0 61.5 -27t15.5 -66q-7 -40 -39 -67t-72 -27t-62 27t-15 67z" />
<glyph unicode="&#x5c2;" d="M373 1278q7 40 39 67t71 27v-1q39 0 61.5 -27t15.5 -66q-7 -40 -38.5 -67t-71.5 -27t-62 27t-15 67z" />
<glyph unicode="&#x5c3;" horiz-adv-x="422" d="M83 147q11 59 61.5 101.5t111.5 42.5t95 -42.5t23 -101.5q-11 -61 -61.5 -104t-109.5 -43q-61 0 -96 43t-24 104zM190 718q11 61 61.5 103.5t111.5 42.5t95 -42.5t23 -103.5q-11 -60 -62 -102.5t-111 -42.5t-94.5 42.5t-23.5 102.5z" />
<glyph unicode="&#x5c4;" d="M141 1334q7 40 39 67t72 27t62 -27t15 -67t-39 -67t-72 -27q-38 0 -61 27t-16 67z" />
<glyph unicode="&#x5d0;" horiz-adv-x="1194" d="M71 0l49 263h79l23 344q8 125 175 232q4 2 5 3l-133 285h304l241 -514q89 41 110 154l17 97h-120l49 263l261 -2q67 0 101 -41t21 -109l-32 -175q-59 -312 -298 -419l178 -381h-304l-293 628q-14 -11 -22.5 -31.5t-11 -38.5t-6.5 -58l-13 -500h-380z" />
<glyph unicode="&#x5d1;" horiz-adv-x="1170" d="M62 0l49 263h639l111 601h-639l49 263h779q67 0 101.5 -40.5t20.5 -109.5l-131 -714h84l-48 -263h-1015z" />
<glyph unicode="&#x5d2;" horiz-adv-x="813" d="M4 0l171 331h261l11 533h-120l49 263h261q64 0 94.5 -40t27.5 -110l-39 -977h-262l-24 263v4l-137 -267h-293z" />
<glyph unicode="&#x5d3;" horiz-adv-x="1076" d="M186 864l49 263h845q67 0 101.5 -40.5t20.5 -109.5l-20 -113h-73l-40 -216l-120 -648h-291l120 648l39 216h-631z" />
<glyph unicode="&#x5d4;" horiz-adv-x="1132" d="M75 0l120 648h294l-123 -648h-291zM235 864l49 263h813q67 0 101.5 -40.5t20.5 -109.5l-180 -977h-291l160 864h-673z" />
<glyph unicode="&#x5d5;" horiz-adv-x="561" d="M177 0l159 864h-120l49 263h261q67 0 101.5 -40.5t20.5 -109.5l-180 -977h-291z" />
<glyph unicode="&#x5d6;" horiz-adv-x="595" d="M126 0l120 648l100 216h-124l49 263h338q67 0 101.5 -40.5t20.5 -109.5l-21 -113h-73l-100 -216l-120 -648h-291z" />
<glyph unicode="&#x5d7;" horiz-adv-x="1155" d="M107 0l120 648l100 216h-102l49 263h846q67 0 101.5 -40.5t20.5 -109.5l-21 -113l-159 -864h-292l160 864h-372l-160 -864h-291z" />
<glyph unicode="&#x5d8;" horiz-adv-x="1149" d="M98 0l120 648l100 216h-91l49 263h267q67 0 101.5 -40.5t20.5 -109.5l-21 -113h-35l-100 -216l-71 -385h376l78 423q16 97 -26 139l-88 -177h-165l233 479q194 -15 283 -134t49 -335l-122 -658h-958z" />
<glyph unicode="&#x5d9;" horiz-adv-x="527" d="M220 864l49 263h261q67 0 101.5 -40.5t20.5 -109.5l-73 -402h-292l53 289h-120z" />
<glyph unicode="&#x5da;" horiz-adv-x="1082" d="M184 864l49 263h814q67 0 101.5 -40.5t20.5 -109.5l-263 -1428h-292l243 1315h-673z" />
<glyph unicode="&#x5db;" horiz-adv-x="1095" d="M62 0l49 263h607q29 0 51 19t26 47l99 535h-672l49 263h813q67 0 101.5 -40.5t20.5 -109.5l-114 -620q-33 -175 -139 -266t-284 -91h-607z" />
<glyph unicode="&#x5dc;" horiz-adv-x="1061" d="M192 864l80 436h292l-32 -173h522q67 0 101.5 -40.5t20.5 -109.5l-94 -507q-41 -223 -185 -346.5t-371 -123.5h-37l48 263h38q177 0 212 179l77 422h-672z" />
<glyph unicode="&#x5dd;" horiz-adv-x="1155" d="M107 0l120 648l100 216h-102l49 263h846q67 0 101.5 -40.5t20.5 -109.5l-21 -113l-159 -864h-955zM447 263h372l111 601h-372z" />
<glyph unicode="&#x5de;" horiz-adv-x="1200" d="M129 -1l160 864h-68l49 263h209q82 0 111 -55l-1 -1q110 56 237 56q133 0 234 -65t145.5 -177.5t19.5 -245.5l-119 -639h-548l48 263h258l75 404q16 81 -32 139t-130 58t-149.5 -57.5t-83.5 -139.5l-124 -667h-291z" />
<glyph unicode="&#x5df;" horiz-adv-x="533" d="M43 -451l203 1099l100 216h-124l49 263h264q66 0 100.5 -40.5t22.5 -109.5l-21 -113l-100 -216l-203 -1099h-291z" />
<glyph unicode="&#x5e0;" horiz-adv-x="631" d="M47 0l49 263h199l111 601h-120l48 263h262q67 0 101.5 -40.5t20.5 -109.5l-181 -977h-490z" />
<glyph unicode="&#x5e1;" horiz-adv-x="1121" d="M188 460l36 188l99 216h-101l49 263h845q67 0 101.5 -40.5t20.5 -109.5l-20 -113l-76 -406q-37 -197 -202.5 -337t-362.5 -140q-129 0 -227.5 64t-142 174.5t-19.5 240.5zM473 430q-14 -77 31 -131.5t122 -54.5t141.5 54.5t78.5 131.5l80 434h-372z" />
<glyph unicode="&#x5e2;" horiz-adv-x="1146" d="M45 0l49 263h192l110 601h-103l49 263h244q67 0 101 -40t21 -110l-131 -714h191q29 0 51.5 19t26.5 47l99 535h-103l49 263h244q67 0 101.5 -40.5t20.5 -109.5l-115 -620q-33 -175 -138.5 -266t-283.5 -91h-675z" />
<glyph unicode="&#x5e3;" horiz-adv-x="1093" d="M124 421l41 227l100 216h-60l49 263h804q67 0 101.5 -40.5t20.5 -109.5l-21 -113l-242 -1315h-291l242 1315h-372l-66 -169h203l-51 -274h-458z" />
<glyph unicode="&#x5e4;" horiz-adv-x="1099" d="M75 0l49 263h597q29 0 51.5 19t26.5 47l99 535h-372l-66 -169h203l-50 -274h-459l41 227l100 216h-60l49 263h804q67 0 101.5 -40.5t20.5 -109.5l-21 -113l-94 -507q-33 -175 -138.5 -266t-283.5 -91h-598z" />
<glyph unicode="&#x5e5;" horiz-adv-x="1061" d="M94 -451l242 1315h-120l49 263h261q67 0 101.5 -40.5t20.5 -109.5l-60 -329h94q177 0 212 179l6 37h-120l49 263l261 -2q67 0 101 -41t21 -109l-23 -120q-41 -223 -185 -346.5t-371 -123.5h-94l-154 -836h-291z" />
<glyph unicode="&#x5e6;" horiz-adv-x="1131" d="M71 0l49 263h564l-361 443l28 158h-120l49 263h261q67 0 101.5 -40.5t20.5 -109.5l-28 -160l100 -124q68 5 116.5 48.5t63.5 122.5h-120l49 263l261 -2q67 0 101 -41t21 -109l-13 -77q-58 -309 -303 -419l175 -216l-49 -263h-966z" />
<glyph unicode="&#x5e7;" horiz-adv-x="1104" d="M-8 -451l203 1099h292l-203 -1099h-292zM235 864l49 263h813q67 0 101.5 -40.5t20.5 -109.5l-94 -507q-41 -223 -185 -346.5t-371 -123.5h-37l49 263h37q177 0 212 179l78 422h-673z" />
<glyph unicode="&#x5e8;" horiz-adv-x="1082" d="M184 864l49 263h814q67 0 101.5 -40.5t20.5 -109.5l-181 -977h-291l160 864h-673z" />
<glyph unicode="&#x5e9;" horiz-adv-x="1520" d="M98 0l120 648l100 216h-91l49 263h246q66 0 100.5 -40.5t21.5 -109.5l-20 -113h-75l-111 -601h238l111 601h-71l49 263h212q67 0 101.5 -40.5t20.5 -109.5l-131 -714h172q30 0 51 18t27 48l99 535h-120l49 263h261q67 0 101.5 -40.5t20.5 -109.5l-132 -714 q-22 -119 -104 -191t-207 -72h-1088z" />
<glyph unicode="&#x5ea;" horiz-adv-x="1176" d="M53 0l48 263h106l71 385l100 216h-102l49 263h815q67 0 102 -40.5t21 -109.5l-21 -113l-160 -864h-291l160 864h-342l-160 -864h-291h-105z" />
<glyph unicode="&#x5f0;" horiz-adv-x="1123" d="M177 0l159 864h-120l49 263h261q67 0 101.5 -40.5t20.5 -109.5l-180 -977h-291zM738 0l160 864h-120l49 263h261q67 0 101.5 -40.5t20.5 -109.5l-180 -977h-292z" />
<glyph unicode="&#x5f1;" horiz-adv-x="1089" d="M220 864l49 263h261q67 0 101.5 -40.5t20.5 -109.5l-73 -402h-292l53 289h-120zM705 0l159 864h-120l49 263h261q67 0 101.5 -40.5t20.5 -109.5l-180 -977h-291z" />
<glyph unicode="&#x5f2;" horiz-adv-x="1055" d="M0 864l49 263h261q67 0 101.5 -40.5t20.5 -109.5l-73 -402h-291l52 289h-120zM528 864l49 263h261q67 0 101.5 -40.5t20.5 -109.5l-73 -402h-291l52 289h-120z" />
<glyph unicode="&#x5f3;" horiz-adv-x="366" d="M194 693l80 434h275l-235 -434h-120z" />
<glyph unicode="&#x5f4;" horiz-adv-x="744" d="M194 693l80 434h275l-235 -434h-120zM571 693l81 434h274l-235 -434h-120z" />
<glyph unicode="&#x200c;" />
<glyph unicode="&#x200d;" />
<glyph unicode="&#x200e;" />
<glyph unicode="&#x200f;" />
<glyph unicode="&#xe000;" horiz-adv-x="1042" d="M0 0v1043h1043v-1043h-1043z" />
<glyph unicode="&#xfb1d;" horiz-adv-x="527" d="M219 864l49 263h261q67 0 101.5 -40.5t20.5 -109.5l-73 -402h-291l52 289h-120zM302 361q6 40 38 67t71 27q40 0 63 -27t16 -67q-7 -39 -39.5 -66.5t-71.5 -27.5q-40 0 -62 27t-15 67z" />
<glyph unicode="&#xfb1e;" d="M16.5 1328q-3.5 41 4.5 96h131q-12 -62 45 -62h87q55 0 67 62h132q-16 -92 -63 -138t-157 -46h-88q-78 0 -116.5 23.5t-42 64.5z" />
<glyph unicode="&#xfb1f;" horiz-adv-x="1055" d="M220 864l49 263h261q67 0 101.5 -40.5t20.5 -109.5l-73 -402h-292l53 289h-120zM419 261l28 154h442l-27 -154h-443zM748 864l49 263h261q67 0 101.5 -40.5t20.5 -109.5l-73 -402h-292l53 289h-120z" />
<glyph unicode="&#xfb20;" horiz-adv-x="1146" d="M45 0l47 263h192l105 601h-103l47 263h244q66 0 100.5 -40.5t23.5 -109.5l-126 -714h192q28 0 49.5 18.5t27.5 47.5l94 535h-104l47 263h244q66 0 100.5 -40.5t23.5 -109.5l-109 -620q-31 -175 -136.5 -266t-283.5 -91h-675z" />
<glyph unicode="&#xfb29;" horiz-adv-x="1127" d="M199 586l40 222h360l64 366h226l-64 -366h361l-40 -222h-947z" />
<glyph unicode="&#xfb2a;" horiz-adv-x="1520" d="M98 0l120 648l100 216h-90l49 263h246q66 0 100.5 -40.5t21.5 -109.5l-21 -113h-75l-111 -601h239l111 601h-72l49 263h213q67 0 101.5 -40.5t20.5 -109.5l-132 -714h173q29 0 50 17.5t27 48.5l100 535h-121l49 263h261q67 0 102 -40.5t21 -109.5l-132 -714 q-22 -119 -104.5 -191t-207.5 -72h-1088zM1413 1278q7 39 39.5 66.5t71.5 27.5v-1q39 0 61.5 -27t15.5 -66q-7 -40 -39 -67t-72 -27t-62 27t-15 67z" />
<glyph unicode="&#xfb2b;" horiz-adv-x="1520" d="M98 0l120 648l100 216h-90l49 263h246q66 0 100.5 -40.5t21.5 -109.5l-21 -113h-75l-111 -601h239l111 601h-72l49 263h213q67 0 101.5 -40.5t20.5 -109.5l-132 -714h173q29 0 50 17.5t27 48.5l100 535h-121l49 263h261q67 0 102 -40.5t21 -109.5l-132 -714 q-22 -119 -104.5 -191t-207.5 -72h-1088zM373 1278q7 40 39 67t71 27v-1q39 0 61.5 -27t15.5 -66q-7 -40 -38.5 -67t-71.5 -27t-62 27t-15 67z" />
<glyph unicode="&#xfb2c;" horiz-adv-x="1520" d="M1 0l120 648l100 216h-90l49 263h246q66 0 100.5 -40.5t21.5 -109.5l-21 -113h-75l-111 -601h239l111 601h-72l49 263h212q67 0 101.5 -40.5t20.5 -109.5l-131 -714h173q29 0 50 17.5t27 48.5l99 535h-120l49 263h261q67 0 101.5 -40.5t20.5 -109.5l-131 -714 q-22 -119 -104.5 -191t-207.5 -72h-1088zM946 563q7 40 39 67t71 27h1q38 0 61 -27t16 -67t-39 -67t-72 -27t-62 27t-15 67zM1413 1278q7 39 39.5 66.5t71.5 27.5v-1q39 0 61.5 -27t15.5 -66q-7 -40 -39 -67t-72 -27t-62 27t-15 67z" />
<glyph unicode="&#xfb2d;" horiz-adv-x="1520" d="M1 0l120 648l100 216h-90l49 263h246q66 0 100.5 -40.5t21.5 -109.5l-21 -113h-75l-111 -601h239l111 601h-72l49 263h212q67 0 101.5 -40.5t20.5 -109.5l-131 -714h173q29 0 50 17.5t27 48.5l99 535h-120l49 263h261q67 0 101.5 -40.5t20.5 -109.5l-131 -714 q-22 -119 -104.5 -191t-207.5 -72h-1088zM373 1278q7 40 39 67t71 27v-1q39 0 61.5 -27t15.5 -66q-7 -40 -38.5 -67t-71.5 -27t-62 27t-15 67zM946 563q7 40 39 67t71 27h1q38 0 61 -27t16 -67t-39 -67t-72 -27t-62 27t-15 67z" />
<glyph unicode="&#xfb2e;" horiz-adv-x="1194" d="M71 0l49 263h79l23 344q8 125 175 232q4 2 5 3l-133 285h304l241 -514q89 41 110 154l17 97h-120l49 263l261 -2q67 0 101 -41t21 -109l-32 -175q-59 -312 -298 -419l178 -381h-304l-293 628q-14 -11 -22.5 -31.5t-11 -38.5t-6.5 -58l-13 -500h-380zM289 -267l29 154h441 l-26 -154h-444z" />
<glyph unicode="&#xfb2f;" horiz-adv-x="1194" d="M71 0l49 263h79l23 344q8 125 175 232q4 2 5 3l-133 285h304l241 -514q89 41 110 154l17 97h-120l49 263l261 -2q67 0 101 -41t21 -109l-32 -175q-59 -312 -298 -419l178 -381h-304l-293 628q-14 -11 -22.5 -31.5t-11 -38.5t-6.5 -58l-13 -500h-380zM289 -267l29 154h441 l-26 -154h-145l-30 -176h-156l32 176h-145z" />
<glyph unicode="&#xfb30;" horiz-adv-x="1194" d="M72 0l49 263h79l22 344q8 125 176 231q4 3 5 4l-134 285h305l240 -515q89 42 111 155l17 97h-120l48 263l262 -2q67 0 101 -41t21 -109l-32 -175q-59 -311 -299 -419l179 -381h-305l-293 627q-14 -11 -22 -32t-10.5 -37.5t-6.5 -57.5l-14 -500h-379zM482 180q7 40 39 67 t71 27q38 0 61 -27t16 -67t-38.5 -67t-71.5 -27t-62 27t-15 67z" />
<glyph unicode="&#xfb31;" horiz-adv-x="1170" d="M63 0l48 263h639l111 601h-639l49 263h780q67 0 101.5 -40.5t20.5 -109.5l-132 -714h85l-49 -263h-1014zM463 564q7 40 39 67t71 27h1q38 0 61 -27t16 -67t-39 -67t-72 -27t-62 27t-15 67z" />
<glyph unicode="&#xfb32;" horiz-adv-x="813" d="M4 0l171 331h261l12 533h-121l49 263h261q64 0 95 -40t28 -110l-40 -977h-261l-24 263v4l-138 -267h-293zM170 564q7 40 39 67t71 27t62 -27.5t16 -66.5q-7 -40 -39 -67t-72 -27t-62 27t-15 67z" />
<glyph unicode="&#xfb33;" horiz-adv-x="1076" d="M187 864l48 263h846q67 0 101.5 -40.5t20.5 -109.5l-21 -113h-73l-39 -216l-121 -648h-291l120 648l40 216h-631zM451 564q7 39 39.5 66.5t71.5 27.5q38 0 61 -27t16 -67t-39 -67t-72 -27t-62 27t-15 67z" />
<glyph unicode="&#xfb34;" horiz-adv-x="1132" d="M76 0l120 648h293l-122 -648h-291zM235 864l49 263h814q67 0 101.5 -40.5t20.5 -109.5l-180 -977h-292l160 864h-673zM564 564q7 39 39.5 66.5t71.5 27.5q38 0 61 -27t16 -67t-39 -67t-72 -27t-62 27t-15 67z" />
<glyph unicode="&#xfb35;" horiz-adv-x="589" d="M102 564q7 40 39 67t71 27h1q38 0 61 -27t16 -67t-39 -67t-72 -27t-62 27t-15 67zM205 0l160 864h-120l49 263h261q67 0 101.5 -40.5t20.5 -109.5l-180 -977h-292z" />
<glyph unicode="&#xfb36;" horiz-adv-x="674" d="M102 564q7 40 39 67t71 27h1q38 0 61 -27t16 -67t-39 -67t-72 -27t-62 27t-15 67zM205 0l121 648l99 216h-124l49 263h338q67 0 101.5 -40.5t20.5 -109.5l-20 -113h-74l-99 -216l-120 -648h-292z" />
<glyph unicode="&#xfb38;" horiz-adv-x="1149" d="M98 0l120 648l100 216h-90l49 263h267q67 0 101.5 -40.5t20.5 -109.5l-21 -113h-36l-99 -216l-72 -385h376l79 423q16 97 -26 139l-89 -177h-165l233 479q194 -15 283.5 -134t49.5 -335l-123 -658h-958zM587 456q7 40 39 67.5t71 27.5l1 -1q38 0 61 -27t16 -67t-39 -66.5 t-72 -26.5t-62 26.5t-15 66.5z" />
<glyph unicode="&#xfb39;" horiz-adv-x="550" d="M102 699q7 40 39 67t71 27h1q38 0 61 -27t16 -67t-39 -67t-72 -27t-62 27t-15 67zM243 864l49 263h261q67 0 101.5 -40.5t20.5 -109.5l-73 -402h-291l52 289h-120z" />
<glyph unicode="&#xfb3a;" horiz-adv-x="1082" d="M185 864l49 263h813q67 0 101.5 -40.5t20.5 -109.5l-263 -1428h-291l242 1315h-672zM463 564q7 40 39 67t71 27h1q38 0 61 -27t16 -67t-39 -67t-72 -27t-62 27t-15 67z" />
<glyph unicode="&#xfb3b;" horiz-adv-x="1095" d="M63 0l48 263h607q29 0 51 19t26 47l100 535h-673l49 263h814q67 0 101.5 -40.5t20.5 -109.5l-115 -620q-33 -175 -139 -266t-284 -91h-606zM508 564q7 40 39 67t71 27h1q38 0 61 -27t16 -67t-39 -67t-72 -27t-62 27t-15 67z" />
<glyph unicode="&#xfb3c;" horiz-adv-x="1061" d="M192 864l81 436h291l-32 -173h523q67 0 101.5 -40.5t20.5 -109.5l-94 -507q-41 -223 -185 -346.5t-371 -123.5h-38l49 263h37q178 0 213 178l77 423h-673zM474 564q7 40 39 67t71 27h1q38 0 61 -27t16 -67t-39 -67t-72 -27t-62 27t-15 67z" />
<glyph unicode="&#xfb3e;" horiz-adv-x="1200" d="M130 -1l159 864h-67l49 263h208q45 0 73 -16.5t39 -38.5l-1 -1q110 56 237 56q203 0 319.5 -142.5t78.5 -345.5l-118 -639h-549l49 263h257l75 404q16 82 -31.5 139.5t-129.5 57.5t-149.5 -57.5t-83.5 -139.5l-124 -667h-291zM632 564q7 40 39 67t71 27h1q38 0 61 -27 t16 -67t-39 -67t-72 -27t-62 27t-15 67z" />
<glyph unicode="&#xfb40;" horiz-adv-x="631" d="M47 0l49 263h200l110 601h-120l49 263h261q67 0 101.5 -40.5t20.5 -109.5l-180 -977h-491zM125 564q7 40 39 67t71 27q38 0 61 -27t16 -67t-38.5 -67t-71.5 -27t-62 27t-15 67z" />
<glyph unicode="&#xfb41;" horiz-adv-x="1121" d="M188 460l36 188l100 216h-102l49 263h846q67 0 101.5 -40.5t20.5 -109.5l-21 -113l-75 -406q-37 -197 -203 -337t-363 -140q-129 0 -227.5 64t-142 174.5t-19.5 240.5zM474 430q-14 -77 30.5 -131.5t121.5 -54.5t141.5 54.5t78.5 131.5l81 434h-372zM589 564q7 40 39 67 t71 27t62 -27.5t16 -66.5q-7 -40 -39 -67t-72 -27t-62 27t-15 67z" />
<glyph unicode="&#xfb43;" horiz-adv-x="1093" d="M125 421l41 227l99 216h-60l49 263h804q67 0 101.5 -40.5t20.5 -109.5l-20 -113l-243 -1315h-291l243 1315h-372l-66 -169h203l-51 -274h-458zM641 699q7 39 39.5 66.5t71.5 27.5q38 0 61 -27t16 -67t-39 -67t-72 -27t-62 27t-15 67z" />
<glyph unicode="&#xfb44;" horiz-adv-x="1099" d="M76 2l49 263h597q29 0 51 19t26 47l100 535h-372l-66 -169h203l-51 -274h-458l41 227l100 216h-61l49 263h804q67 0 102 -40.5t21 -109.5l-21 -113l-94 -507q-33 -175 -139 -266t-284 -91h-597zM673 697q7 39 39.5 66.5t71.5 27.5q38 0 61 -27t16 -67t-39 -67t-72 -27 t-62 27t-15 67z" />
<glyph unicode="&#xfb46;" horiz-adv-x="1131" d="M72 0l49 263h563l-360 443l28 158h-120l48 263h262q67 0 101.5 -40.5t20.5 -109.5l-28 -160l99 -124q69 5 117.5 48.5t63.5 122.5h-121l49 263l261 -2q67 0 101 -41t21 -109l-13 -77q-58 -310 -302 -419l175 -216l-49 -263h-966zM247 425q7 40 39 67t71 27h1q38 0 61 -27 t16 -67t-39 -67t-72 -27t-62 27t-15 67z" />
<glyph unicode="&#xfb47;" horiz-adv-x="1104" d="M-7 -451l203 1099h291l-203 -1099h-291zM235 864l49 263h814q67 0 101.5 -40.5t20.5 -109.5l-94 -507q-41 -223 -185 -346.5t-371 -123.5h-38l49 263h38q177 0 212 178l77 423h-673zM564 564q7 39 39.5 66.5t71.5 27.5q38 0 61 -27t16 -67t-39 -67t-72 -27t-62 27t-15 67 z" />
<glyph unicode="&#xfb48;" horiz-adv-x="1082" d="M185 864l49 263h813q67 0 101.5 -40.5t20.5 -109.5l-180 -977h-291l159 864h-672zM480 564q7 40 39 67t71 27h1q38 0 61 -27t16 -67t-39 -67t-72 -27t-62 27t-15 67z" />
<glyph unicode="&#xfb49;" horiz-adv-x="1520" d="M1 0l120 648l99 216h-90l49 263h246q66 0 100.5 -40.5t21.5 -109.5l-20 -113h-76l-110 -601h238l111 601h-71l49 263h212q67 0 101.5 -40.5t20.5 -109.5l-132 -714h173q29 0 50 17.5t27 48.5l100 535h-120l49 263h261q67 0 101.5 -40.5t20.5 -109.5l-132 -714 q-22 -119 -104.5 -191t-207.5 -72h-1087zM946 564q7 40 39 67t71 27t62 -27.5t16 -66.5q-7 -40 -39 -67t-72 -27t-62 27t-15 67z" />
<glyph unicode="&#xfb4a;" horiz-adv-x="1176" d="M53 0l49 263h105l72 385l99 216h-101l49 263h815q67 0 101.5 -40.5t20.5 -109.5l-21 -113l-159 -864h-291l159 864h-342l-159 -864h-292h-105zM632 564q7 40 39 67t71 27h1q38 0 61 -27t16 -67t-39 -67t-72 -27t-62 27t-15 67z" />
<glyph unicode="&#xfb4b;" horiz-adv-x="561" d="M177 0l159 864h-120l49 263h261q67 0 101.5 -40.5t20.5 -109.5l-180 -977h-291zM451 1334q7 40 39 67t72 27t62 -27t15 -67t-39 -67t-72 -27q-38 0 -61 27t-16 67z" />
<glyph unicode="&#xfb4c;" horiz-adv-x="1170" d="M62 0l49 263h639l111 601h-639l49 263h779q67 0 101.5 -40.5t20.5 -109.5l-131 -714h84l-48 -263h-1015zM505 1240l27 154h443l-28 -154h-442z" />
<glyph unicode="&#xfb4d;" horiz-adv-x="1095" d="M62 0l49 263h607q29 0 51 19t26 47l99 535h-672l49 263h813q67 0 101.5 -40.5t20.5 -109.5l-114 -620q-33 -175 -139 -266t-284 -91h-607zM517 1240l26 154h443l-28 -154h-441z" />
<glyph unicode="&#xfb4e;" horiz-adv-x="1099" d="M75 0l49 263h597q29 0 51.5 19t26.5 47l99 535h-372l-66 -169h203l-50 -274h-459l41 227l100 216h-60l49 263h804q67 0 101.5 -40.5t20.5 -109.5l-21 -113l-94 -507q-33 -175 -138.5 -266t-283.5 -91h-598zM545 1240l26 154h444l-29 -154h-441z" />
<glyph unicode="&#xfb4f;" horiz-adv-x="1194" d="M269 1107l528 -1107h304l-182 381q242 108 295 419l32 175q11 68 -24 109t-100 41l-261 2l-47 -263h120l-17 -97q-18 -112 -109 -154l-244 514l30 173h-291z" />
</font>
</defs>
</svg>
